<svg width="15" height="17" viewBox="0 0 15 17" fill="none" xmlns="http://www.w3.org/2000/svg">
<path d="M8.74944 15.2525C8.62247 15.4799 8.44022 15.6686 8.22094 15.7998C8.00166 15.931 7.75305 16 7.5 16C7.24695 16 6.99834 15.931 6.77906 15.7998C6.55978 15.6686 6.37753 15.4799 6.25056 15.2525M11.8333 5.5008C11.8333 4.30711 11.3768 3.16232 10.5641 2.31825C9.75147 1.47419 8.64927 1 7.5 1C6.35073 1 5.24853 1.47419 4.43587 2.31825C3.62321 3.16232 3.16667 4.30711 3.16667 5.5008C3.16667 10.7517 1 12.252 1 12.252H14C14 12.252 11.8333 10.7517 11.8333 5.5008Z" stroke="white" stroke-linecap="round" stroke-linejoin="round"/>
</svg>
