<svg width="40" height="40" viewBox="0 0 40 40" fill="none" xmlns="http://www.w3.org/2000/svg">
<path d="M20 38.7312C29.8997 38.7312 37.925 30.706 37.925 20.8062C37.925 10.9065 29.8997 2.88125 20 2.88125C10.1003 2.88125 2.075 10.9065 2.075 20.8062C2.075 30.706 10.1003 38.7312 20 38.7312Z" fill="#D68F30"/>
<path d="M3.29375 25.4625V27.2937C3.48125 27.7781 3.69062 28.2563 3.91875 28.7188V25.4625H3.29375ZM5.3375 28.9094V31.1094C5.5875 31.4625 5.84687 31.8094 6.11875 32.1438V28.9094H5.3375ZM8.04375 31.7844V34.1563C8.34687 34.4281 8.65937 34.6875 8.98125 34.9375V31.7844H8.04375ZM11.375 33.9687V36.5188C11.6812 36.6875 11.9937 36.8469 12.3125 37V33.9687H11.375ZM15.1531 35.3594V38.0594C15.4625 38.1469 15.775 38.225 16.0906 38.2969V35.3594H15.1531ZM19.575 35.8406V38.7188C19.7156 38.7219 19.8562 38.7281 20 38.7281C20.1719 38.7281 20.3437 38.7188 20.5125 38.7156V35.8406H19.575ZM23.9969 35.3375V38.275C24.3125 38.2031 24.625 38.1219 24.9344 38.0344V35.3375H23.9969ZM27.7656 33.9281V36.9625C28.0844 36.8094 28.3969 36.6438 28.7031 36.4719V33.9281H27.7656ZM31.0875 31.725V34.8813C31.4092 34.6299 31.7219 34.3672 32.025 34.0938V31.725H31.0875ZM34.7156 28.8406H33.9344V32.075C34.2062 31.7375 34.4687 31.3906 34.7156 31.0344V28.8406ZM36.7469 25.3813H36.1219V28.6438C36.35 28.1719 36.5594 27.6875 36.7469 27.1969V25.3813Z" fill="#BC6F00"/>
<path d="M20 37.1187C29.8997 37.1187 37.925 29.0934 37.925 19.1937C37.925 9.29404 29.8997 1.26875 20 1.26875C10.1003 1.26875 2.075 9.29404 2.075 19.1937C2.075 29.0934 10.1003 37.1187 20 37.1187Z" fill="#FFF176"/>
<path d="M20 35.5219C29.0178 35.5219 36.3281 28.2115 36.3281 19.1938C36.3281 10.176 29.0178 2.86563 20 2.86563C10.9822 2.86563 3.67188 10.176 3.67188 19.1938C3.67188 28.2115 10.9822 35.5219 20 35.5219Z" fill="#F2BC1A"/>
<path d="M3.64063 19.8188C3.525 17.6687 3.89688 15.4875 4.64688 13.4438C5.42813 11.4063 6.625 9.52188 8.13438 7.92188C11.1656 4.71563 15.5656 2.85625 20 2.83438C24.4344 2.85938 28.8375 4.71563 31.8625 7.925C33.375 9.52188 34.5688 11.4094 35.35 13.4438C36.1031 15.4906 36.475 17.6687 36.3563 19.8188H36.2938C36.2876 17.6739 35.863 15.5509 35.0438 13.5688C34.2231 11.5888 33.0247 9.78758 31.5156 8.26563C30.0056 6.74517 28.2111 5.53679 26.2344 4.70938C24.2583 3.88433 22.1382 3.4595 19.9969 3.4595C17.8555 3.4595 15.7354 3.88433 13.7594 4.70938C11.7827 5.53679 9.98815 6.74517 8.47813 8.26563C6.96801 9.78675 5.76953 11.5882 4.95 13.5688C4.13075 15.5509 3.70615 17.6739 3.7 19.8188H3.64063Z" fill="#E08F00"/>
<path d="M20 1.27188C10.1 1.27188 2.075 9.29688 2.075 19.1969C2.075 29.0969 10.1 37.1219 20 37.1219C29.9 37.1219 37.925 29.0969 37.925 19.1969C37.925 9.29688 29.9 1.27188 20 1.27188ZM20 35.525C10.9812 35.525 3.67187 28.2156 3.67187 19.1969C3.67187 10.175 10.9812 2.86563 20 2.86563C29.0187 2.86563 36.3281 10.175 36.3281 19.1937C36.3281 28.2125 29.0187 35.525 20 35.525Z" fill="#FFF176"/>
<path d="M11.8719 6.67188L12.2687 7.9L13.5625 7.40625V7.9L12.5156 8.65937L12.9156 9.39062V9.8875L11.8719 9.12812L10.825 9.8875V9.39062L11.225 8.65937L10.1812 7.9V7.40625L11.4719 7.9L11.8719 6.67188ZM6.87812 13.7219L7.27812 14.95L8.56874 14.4562V14.95L7.52499 15.7094L7.92499 16.4437V16.9375L6.87812 16.1781L5.83437 16.9375V16.4437L6.23437 15.7094L5.18749 14.95V14.4562L6.48124 14.95L6.87812 13.7219ZM6.73124 22.4125L7.13124 23.6406L8.42187 23.1469V23.6406L7.37812 24.4L7.77812 25.1344V25.6281L6.73124 24.8688L5.68749 25.6281V25.1344L6.08749 24.4L5.04062 23.6406V23.1469L6.33437 23.6406L6.73124 22.4125ZM12.0625 29.3125L12.4625 30.5406L13.7531 30.0469V30.5406L12.7094 31.3L13.1094 32.0312V32.5281L12.0625 31.7688L11.0187 32.5281V32.0312L11.4187 31.3L10.3719 30.5406V30.0469L11.6656 30.5406L12.0625 29.3125ZM28.1281 6.67188L27.7312 7.9L26.4375 7.40625V7.9L27.4844 8.65937L27.0844 9.39062V9.8875L28.1281 9.12812L29.175 9.8875V9.39062L28.775 8.65937L29.8187 7.9V7.40625L28.5281 7.9L28.1281 6.67188ZM33.1219 13.7219L32.7219 14.95L31.4312 14.4562V14.95L32.475 15.7094L32.075 16.4437V16.9375L33.1219 16.1781L34.1656 16.9375V16.4437L33.7656 15.7094L34.8125 14.95V14.4562L33.5187 14.95L33.1219 13.7219ZM33.2687 22.4125L32.8687 23.6406L31.5781 23.1469V23.6406L32.6219 24.4L32.2219 25.1344V25.6281L33.2687 24.8688L34.3125 25.6281V25.1344L33.9125 24.4L34.9594 23.6406V23.1469L33.6656 23.6406L33.2687 22.4125ZM27.9375 29.3125L27.5375 30.5406L26.2469 30.0469V30.5406L27.2906 31.3L26.8906 32.0312V32.5281L27.9375 31.7688L28.9812 32.5281V32.0312L28.5812 31.3L29.6281 30.5406V30.0469L28.3344 30.5406L27.9375 29.3125Z" fill="#D38200"/>
<path d="M27.9375 28.8156L28.3344 30.0437H29.6281L28.5812 30.8031L28.9812 32.0312L27.9375 31.2719L26.8906 32.0312L27.2906 30.8031L26.2469 30.0437H27.5375L27.9375 28.8156ZM33.2687 21.9187L33.6656 23.1469H34.9594L33.9125 23.9062L34.3125 25.1344L33.2687 24.375L32.2219 25.1344L32.6219 23.9062L31.5781 23.1469H32.8687L33.2687 21.9187ZM33.1219 13.2281L33.5187 14.4562H34.8125L33.7656 15.2156L34.1656 16.4438L33.1219 15.6844L32.075 16.4438L32.475 15.2156L31.4312 14.4562H32.7219L33.1219 13.2281ZM28.1281 6.175L28.5281 7.40313H29.8187L28.775 8.1625L29.175 9.39062L28.1281 8.63125L27.0844 9.39062L27.4844 8.1625L26.4375 7.40313H27.7312L28.1281 6.175Z" fill="#FFF176"/>
<path d="M20.0156 32.0312L20.4156 33.2594L21.7062 32.7656V33.2594L20.6625 34.0188L21.0625 34.7531V35.2469L20.0156 34.4875L18.9719 35.2469V34.7531L19.3719 34.0188L18.325 33.2594V32.7656L19.6187 33.2594L20.0156 32.0312Z" fill="#D38200"/>
<path d="M20.0156 31.375L20.4156 32.6031H21.7062L20.6625 33.3625L21.0625 34.5906L20.0156 33.8313L18.9719 34.5906L19.3719 33.3625L18.325 32.6031H19.6187L20.0156 31.375Z" fill="#FFF176"/>
<path d="M20.0156 4.02813L20.4156 5.25625L21.7062 4.7625V5.25625L20.6625 6.01563L21.0625 6.75V7.24375L20.0156 6.48438L18.9719 7.24375V6.75L19.3719 6.01563L18.325 5.25625V4.7625L19.6187 5.25625L20.0156 4.02813Z" fill="#D38200"/>
<path d="M20.0156 3.53438L20.4156 4.7625H21.7062L20.6625 5.52188L21.0625 6.75L20.0156 5.99063L18.9719 6.75L19.3719 5.52188L18.325 4.7625H19.6187L20.0156 3.53438ZM12.0625 28.8156L11.6656 30.0438H10.3719L11.4187 30.8031L11.0187 32.0313L12.0625 31.2719L13.1094 32.0313L12.7094 30.8031L13.7531 30.0438H12.4625L12.0625 28.8156ZM6.73124 21.9187L6.33437 23.1469H5.04062L6.08749 23.9063L5.68749 25.1344L6.73124 24.375L7.77812 25.1344L7.37812 23.9063L8.42187 23.1469H7.13124L6.73124 21.9187ZM6.87812 13.2281L6.48124 14.4562H5.18749L6.23437 15.2156L5.83437 16.4437L6.87812 15.6844L7.92499 16.4437L7.52499 15.2156L8.56874 14.4562H7.27812L6.87812 13.2281ZM11.8719 6.175L11.4719 7.40313H10.1812L11.225 8.1625L10.825 9.39062L11.8719 8.63125L12.9156 9.39062L12.5156 8.1625L13.5625 7.40313H12.2687L11.8719 6.175Z" fill="#FFF176"/>
<path d="M29.7562 15.0625C29.7562 14.9531 10.2625 15.0625 10.2625 15.0625L10.0875 15.5875V16.4844C10.0875 16.6469 10.2187 16.7781 10.3812 16.7781H29.6187C29.7812 16.7781 29.9125 16.6469 29.9125 16.4844V15.6125L29.7562 15.0625ZM29.7844 26.7188H10.3437L9.04375 27.3719L9.05937 28.2125C9.0625 28.3031 9.1375 28.3781 9.23125 28.3781H30.7719C30.8625 28.3781 30.9406 28.3062 30.9437 28.2125L30.9594 27.3875L29.7844 26.7188Z" fill="#D38200"/>
<path d="M13.4781 24.1625H12.3594C12.175 24.1625 12.025 23.5813 12.025 23.3969L13.8094 23.3406C13.8094 23.525 13.6594 24.1625 13.4781 24.1625ZM13.8594 18.1281H11.975C11.8344 18.1281 11.7125 18.0344 11.6719 17.9L11.525 16.6719H14.2844L14.1594 17.9C14.1219 18.0344 14 18.1281 13.8594 18.1281ZM11.975 24.5344H13.8594C14 24.5344 14.2781 24.6219 14.3156 24.7563C14.3156 24.7563 14.3063 25.3406 14.3063 25.5719C14.3063 25.8031 14.2125 25.9719 14.0031 25.9719H11.8313C11.6219 25.9719 11.5281 25.7844 11.5281 25.5719C11.5281 25.3594 11.5188 24.7625 11.5188 24.7625C11.5594 24.6281 11.8344 24.5344 11.975 24.5344ZM28.0094 24.1625H26.8906C26.7063 24.1625 26.5563 23.5813 26.5563 23.3969L28.3406 23.3406C28.3406 23.525 28.1938 24.1625 28.0094 24.1625ZM28.3906 18.1281H26.5063C26.3656 18.1281 26.2438 18.0344 26.2031 17.9L26.0563 16.6719H28.8156L28.6906 17.9C28.6531 18.0344 28.5313 18.1281 28.3906 18.1281ZM26.5063 24.5344H28.3906C28.5313 24.5344 28.8094 24.6219 28.8469 24.7563C28.8469 24.7563 28.8375 25.3406 28.8375 25.5719C28.8375 25.8031 28.7438 25.9719 28.5344 25.9719H26.3625C26.1531 25.9719 26.0594 25.7844 26.0594 25.5719C26.0594 25.3594 26.05 24.7625 26.05 24.7625C26.0906 24.6281 26.3656 24.5344 26.5063 24.5344ZM23.1656 24.1625H22.0469C21.8625 24.1625 21.7125 23.5813 21.7125 23.3969L23.4969 23.3406C23.4969 23.525 23.35 24.1625 23.1656 24.1625ZM23.5469 18.1281H21.6625C21.5219 18.1281 21.4 18.0344 21.3594 17.9L21.2125 16.6719H23.9719L23.8469 17.9C23.8094 18.0344 23.6875 18.1281 23.5469 18.1281ZM21.6625 24.5344H23.5469C23.6875 24.5344 23.9656 24.6219 24.0031 24.7563C24.0031 24.7563 23.9938 25.3406 23.9938 25.5719C23.9938 25.8031 23.9 25.9719 23.6906 25.9719H21.5188C21.3094 25.9719 21.2156 25.7844 21.2156 25.5719C21.2156 25.3594 21.2063 24.7625 21.2063 24.7625C21.2469 24.6281 21.5219 24.5344 21.6625 24.5344ZM18.3219 24.1625H17.2031C17.0188 24.1625 16.8688 23.5813 16.8688 23.3969L18.6531 23.3406C18.6531 23.525 18.5063 24.1625 18.3219 24.1625ZM18.7031 18.1281H16.8188C16.6781 18.1281 16.5563 18.0344 16.5156 17.9L16.3688 16.6719H19.1281L19.0031 17.9C18.9656 18.0344 18.8438 18.1281 18.7031 18.1281ZM16.8188 24.5344H18.7031C18.8438 24.5344 19.1219 24.6219 19.1594 24.7563C19.1594 24.7563 19.15 25.3406 19.15 25.5719C19.15 25.8031 19.0563 25.9719 18.8469 25.9719H16.675C16.4656 25.9719 16.3719 25.7844 16.3719 25.5719C16.3719 25.3594 16.3625 24.7625 16.3625 24.7625C16.4031 24.6281 16.6781 24.5344 16.8188 24.5344Z" fill="#D38200"/>
<path d="M29.8969 14.225C29.8969 14.1156 29.8406 14.0125 29.7562 13.9625L20.0125 8.43125L10.2562 13.9562C10.1625 14.0125 10.1031 14.1156 10.1031 14.225L10.0875 15.5906C10.0875 15.7625 10.2281 15.9031 10.4 15.9031H29.5969C29.7687 15.9031 29.9094 15.7625 29.9094 15.5906L29.8969 14.225Z" fill="#FFF176"/>
<path d="M27.45 13.8531L20 9.625L12.55 13.8531H27.45Z" fill="#F2BC1A"/>
<path d="M24.7094 13.3375L20 10.6625L15.2906 13.3375H24.7094ZM29.1844 25.6312H10.8156C10.6344 25.6312 10.4625 25.7094 10.3406 25.8437L9.07812 27.2531C8.99062 27.35 9.05937 27.5031 9.19062 27.5031H30.8094C30.9375 27.5031 31.0062 27.35 30.9219 27.2531L29.6562 25.8437C29.5375 25.7094 29.3625 25.6312 29.1844 25.6312ZM28.0094 23.5969H26.8906C26.7062 23.5969 26.5562 23.4469 26.5562 23.2625V18.2687C26.5562 18.0844 26.7062 17.9344 26.8906 17.9344H28.0094C28.1937 17.9344 28.3437 18.0844 28.3437 18.2687V23.2656C28.3437 23.45 28.1937 23.5969 28.0094 23.5969ZM28.3937 17.5625H26.5094C26.3687 17.5625 26.2469 17.4688 26.2062 17.3344L26.0625 16.8375C26.0031 16.6375 26.1562 16.4375 26.3656 16.4375H28.5375C28.7469 16.4375 28.8969 16.6375 28.8406 16.8375L28.6969 17.3344C28.6562 17.4688 28.5312 17.5625 28.3937 17.5625ZM26.5062 23.9719H28.3906C28.5312 23.9719 28.6531 24.0656 28.6937 24.2L28.8375 24.6969C28.8969 24.8969 28.7437 25.0969 28.5344 25.0969H26.3625C26.1531 25.0969 26.0031 24.8969 26.0594 24.6969L26.2031 24.2C26.2437 24.0625 26.3687 23.9719 26.5062 23.9719ZM13.4781 23.5969H12.3594C12.175 23.5969 12.025 23.4469 12.025 23.2625V18.2687C12.025 18.0844 12.175 17.9344 12.3594 17.9344H13.4781C13.6625 17.9344 13.8125 18.0844 13.8125 18.2687V23.2656C13.8094 23.45 13.6594 23.5969 13.4781 23.5969ZM13.8594 17.5625H11.975C11.8344 17.5625 11.7125 17.4688 11.6719 17.3344L11.5281 16.8375C11.4687 16.6375 11.6219 16.4375 11.8312 16.4375H14.0031C14.2125 16.4375 14.3625 16.6375 14.3062 16.8375L14.1625 17.3344C14.1219 17.4688 14 17.5625 13.8594 17.5625ZM11.975 23.9719H13.8594C14 23.9719 14.1219 24.0656 14.1625 24.2L14.3062 24.6969C14.3656 24.8969 14.2125 25.0969 14.0031 25.0969H11.8312C11.6219 25.0969 11.4719 24.8969 11.5281 24.6969L11.6719 24.2C11.7125 24.0625 11.8344 23.9719 11.975 23.9719ZM18.3219 23.5969H17.2031C17.0187 23.5969 16.8687 23.4469 16.8687 23.2625V18.2687C16.8687 18.0844 17.0187 17.9344 17.2031 17.9344H18.3219C18.5062 17.9344 18.6562 18.0844 18.6562 18.2687V23.2656C18.6554 23.3538 18.6198 23.438 18.5572 23.5C18.4946 23.5621 18.41 23.5969 18.3219 23.5969ZM18.7031 17.5625H16.8187C16.6781 17.5625 16.5562 17.4688 16.5156 17.3344L16.3719 16.8375C16.3125 16.6375 16.4656 16.4375 16.675 16.4375H18.8469C19.0562 16.4375 19.2062 16.6375 19.15 16.8375L19.0062 17.3344C18.9656 17.4688 18.8437 17.5625 18.7031 17.5625ZM16.8187 23.9719H18.7031C18.8437 23.9719 18.9656 24.0656 19.0062 24.2L19.15 24.6969C19.2094 24.8969 19.0562 25.0969 18.8469 25.0969H16.675C16.4656 25.0969 16.3156 24.8969 16.3719 24.6969L16.5156 24.2C16.5562 24.0625 16.6781 23.9719 16.8187 23.9719ZM23.1656 23.5969H22.0469C21.8625 23.5969 21.7125 23.4469 21.7125 23.2625V18.2687C21.7125 18.0844 21.8625 17.9344 22.0469 17.9344H23.1656C23.35 17.9344 23.5 18.0844 23.5 18.2687V23.2656C23.4992 23.3538 23.4636 23.438 23.401 23.5C23.3383 23.5621 23.2538 23.5969 23.1656 23.5969ZM23.5469 17.5625H21.6625C21.5219 17.5625 21.4 17.4688 21.3594 17.3344L21.2156 16.8375C21.1562 16.6375 21.3094 16.4375 21.5187 16.4375H23.6906C23.9 16.4375 24.05 16.6375 23.9937 16.8375L23.85 17.3344C23.8094 17.4688 23.6875 17.5625 23.5469 17.5625ZM21.6625 23.9719H23.5469C23.6875 23.9719 23.8094 24.0656 23.85 24.2L23.9937 24.6969C24.0531 24.8969 23.9 25.0969 23.6906 25.0969H21.5187C21.3094 25.0969 21.1594 24.8969 21.2156 24.6969L21.3594 24.2C21.4 24.0625 21.525 23.9719 21.6625 23.9719Z" fill="#FFF176"/>
</svg>
