<svg width="36" height="46" viewBox="0 0 36 46" fill="none" xmlns="http://www.w3.org/2000/svg">
<path d="M20 2C20 0.89543 19.1046 0 18 0C16.8954 0 16 0.89543 16 2H20ZM16.5858 35.4142C17.3668 36.1953 18.6332 36.1953 19.4142 35.4142L32.1421 22.6863C32.9232 21.9052 32.9232 20.6389 32.1421 19.8579C31.3611 19.0768 30.0948 19.0768 29.3137 19.8579L18 31.1716L6.68629 19.8579C5.90524 19.0768 4.63891 19.0768 3.85786 19.8579C3.07682 20.6389 3.07682 21.9052 3.85786 22.6863L16.5858 35.4142ZM16 2V34H20V2H16Z" fill="#195ADA"/>
<line x1="2" y1="44" x2="34" y2="44" stroke="#195ADA" stroke-width="4" stroke-linecap="round"/>
</svg>
