<svg width="31" height="36" viewBox="0 0 31 36" fill="none" xmlns="http://www.w3.org/2000/svg">
<path d="M25.65 14.2625H4.375C1.9625 14.2625 0 16.225 0 18.6375C0 21.05 1.9625 23.0125 4.375 23.0125H25.65C28.0625 23.0125 30.025 21.05 30.025 18.6375C30.025 16.225 28.0625 14.2625 25.65 14.2625Z" fill="url(#paint0_linear_9_3480)"/>
<path d="M25.65 14.2625H4.375C1.9625 14.2625 0 16.225 0 18.6375C0 21.05 1.9625 23.0125 4.375 23.0125H25.65C28.0625 23.0125 30.025 21.05 30.025 18.6375C30.025 16.225 28.0625 14.2625 25.65 14.2625Z" fill="url(#paint1_linear_9_3480)"/>
<path d="M25.65 14.2625H4.375C1.9625 14.2625 0 16.225 0 18.6375C0 21.05 1.9625 23.0125 4.375 23.0125H25.65C28.0625 23.0125 30.025 21.05 30.025 18.6375C30.025 16.225 28.0625 14.2625 25.65 14.2625Z" fill="url(#paint2_radial_9_3480)"/>
<path d="M25.65 14.2625H4.375C1.9625 14.2625 0 16.225 0 18.6375C0 21.05 1.9625 23.0125 4.375 23.0125H25.65C28.0625 23.0125 30.025 21.05 30.025 18.6375C30.025 16.225 28.0625 14.2625 25.65 14.2625Z" fill="url(#paint3_radial_9_3480)"/>
<path d="M25.65 14.2625H4.375C1.9625 14.2625 0 16.225 0 18.6375C0 21.05 1.9625 23.0125 4.375 23.0125H25.65C28.0625 23.0125 30.025 21.05 30.025 18.6375C30.025 16.225 28.0625 14.2625 25.65 14.2625Z" fill="url(#paint4_radial_9_3480)"/>
<path d="M25.65 14.2625H4.375C1.9625 14.2625 0 16.225 0 18.6375C0 21.05 1.9625 23.0125 4.375 23.0125H25.65C28.0625 23.0125 30.025 21.05 30.025 18.6375C30.025 16.225 28.0625 14.2625 25.65 14.2625Z" fill="url(#paint5_radial_9_3480)"/>
<g filter="url(#filter0_f_9_3480)">
<path d="M21.9 9.60125H8.13749C2.51249 9.60125 3.69124 16.9637 8.12499 16.9637H14.9612C16.9925 16.9637 21.745 17.2062 21.745 17.2062C26.6737 17.2062 27.545 9.60125 21.9 9.60125Z" fill="url(#paint6_linear_9_3480)"/>
</g>
<path d="M21.9 8.0125H8.13751C7.56298 8.01168 6.99391 8.12403 6.46279 8.34313C5.93168 8.56224 5.44892 8.88381 5.04209 9.28949C4.22044 10.1088 3.75792 11.2209 3.75626 12.3812C3.7546 13.5416 4.21395 14.655 5.03325 15.4767C5.85255 16.2983 6.96469 16.7608 8.12501 16.7625H21.8875C24.3 16.7625 26.2625 14.8 26.2625 12.3875C26.275 9.9625 24.3125 8.0125 21.9 8.0125Z" fill="url(#paint7_linear_9_3480)"/>
<path d="M21.9 8.0125H8.13751C7.56298 8.01168 6.99391 8.12403 6.46279 8.34313C5.93168 8.56224 5.44892 8.88381 5.04209 9.28949C4.22044 10.1088 3.75792 11.2209 3.75626 12.3812C3.7546 13.5416 4.21395 14.655 5.03325 15.4767C5.85255 16.2983 6.96469 16.7608 8.12501 16.7625H21.8875C24.3 16.7625 26.2625 14.8 26.2625 12.3875C26.275 9.9625 24.3125 8.0125 21.9 8.0125Z" fill="url(#paint8_radial_9_3480)"/>
<path d="M21.9 8.0125H8.13751C7.56298 8.01168 6.99391 8.12403 6.46279 8.34313C5.93168 8.56224 5.44892 8.88381 5.04209 9.28949C4.22044 10.1088 3.75792 11.2209 3.75626 12.3812C3.7546 13.5416 4.21395 14.655 5.03325 15.4767C5.85255 16.2983 6.96469 16.7608 8.12501 16.7625H21.8875C24.3 16.7625 26.2625 14.8 26.2625 12.3875C26.275 9.9625 24.3125 8.0125 21.9 8.0125Z" fill="url(#paint9_radial_9_3480)"/>
<g filter="url(#filter1_f_9_3480)">
<path d="M9.00375 6.935C9.00375 9.99375 12.5038 10.2925 14.9538 10.11C17.3 9.935 20.7613 9.9525 20.7613 6.935C17.6288 3.9575 11.48 4.50375 9.00375 6.935Z" fill="#D73A7E"/>
</g>
<path d="M20.3125 4.4375C20.2375 4.3625 20.1625 4.3 20.075 4.225L16.4125 1.025C15.6125 0.325 14.4125 0.325 13.6125 1.025L9.82501 4.325C9.17501 4.9 8.76251 5.7375 8.76251 6.6875C8.76251 9.7 12.595 9.8125 15.0125 9.8125C17.36 9.8125 21.2625 9.5425 21.2625 6.6875C21.275 5.8 20.9 5 20.3125 4.4375Z" fill="#F252B5"/>
<path d="M20.3125 4.4375C20.2375 4.3625 20.1625 4.3 20.075 4.225L16.4125 1.025C15.6125 0.325 14.4125 0.325 13.6125 1.025L9.82501 4.325C9.17501 4.9 8.76251 5.7375 8.76251 6.6875C8.76251 9.7 12.595 9.8125 15.0125 9.8125C17.36 9.8125 21.2625 9.5425 21.2625 6.6875C21.275 5.8 20.9 5 20.3125 4.4375Z" fill="url(#paint10_radial_9_3480)"/>
<path d="M20.3125 4.4375C20.2375 4.3625 20.1625 4.3 20.075 4.225L16.4125 1.025C15.6125 0.325 14.4125 0.325 13.6125 1.025L9.82501 4.325C9.17501 4.9 8.76251 5.7375 8.76251 6.6875C8.76251 9.7 12.595 9.8125 15.0125 9.8125C17.36 9.8125 21.2625 9.5425 21.2625 6.6875C21.275 5.8 20.9 5 20.3125 4.4375Z" fill="url(#paint11_radial_9_3480)"/>
<path d="M20.3125 4.4375C20.2375 4.3625 20.1625 4.3 20.075 4.225L16.4125 1.025C15.6125 0.325 14.4125 0.325 13.6125 1.025L9.82501 4.325C9.17501 4.9 8.76251 5.7375 8.76251 6.6875C8.76251 9.7 12.595 9.8125 15.0125 9.8125C17.36 9.8125 21.2625 9.5425 21.2625 6.6875C21.275 5.8 20.9 5 20.3125 4.4375Z" fill="url(#paint12_radial_9_3480)"/>
<path d="M26.55 23.0125H3.47501C3.1293 23.0119 2.78826 23.0923 2.47917 23.2471C2.17008 23.402 1.90153 23.627 1.695 23.9042C1.48847 24.1815 1.3497 24.5032 1.2898 24.8437C1.22989 25.1841 1.25051 25.5339 1.35001 25.865L3.98751 34.6987C4.13751 35.1737 4.58751 35.5 5.10001 35.5H24.9375C25.4375 35.5 25.8875 35.175 26.05 34.7L28.6875 25.865C28.7843 25.533 28.8025 25.1831 28.7407 24.8429C28.6789 24.5026 28.5387 24.1815 28.3314 23.9047C28.124 23.628 27.8551 23.4034 27.5459 23.2485C27.2368 23.0936 26.8958 23.0128 26.55 23.0125Z" fill="url(#paint13_linear_9_3480)"/>
<path d="M26.55 23.0125H3.47501C3.1293 23.0119 2.78826 23.0923 2.47917 23.2471C2.17008 23.402 1.90153 23.627 1.695 23.9042C1.48847 24.1815 1.3497 24.5032 1.2898 24.8437C1.22989 25.1841 1.25051 25.5339 1.35001 25.865L3.98751 34.6987C4.13751 35.1737 4.58751 35.5 5.10001 35.5H24.9375C25.4375 35.5 25.8875 35.175 26.05 34.7L28.6875 25.865C28.7843 25.533 28.8025 25.1831 28.7407 24.8429C28.6789 24.5026 28.5387 24.1815 28.3314 23.9047C28.124 23.628 27.8551 23.4034 27.5459 23.2485C27.2368 23.0936 26.8958 23.0128 26.55 23.0125Z" fill="url(#paint14_radial_9_3480)"/>
<path d="M26.55 23.0125H3.47501C3.1293 23.0119 2.78826 23.0923 2.47917 23.2471C2.17008 23.402 1.90153 23.627 1.695 23.9042C1.48847 24.1815 1.3497 24.5032 1.2898 24.8437C1.22989 25.1841 1.25051 25.5339 1.35001 25.865L3.98751 34.6987C4.13751 35.1737 4.58751 35.5 5.10001 35.5H24.9375C25.4375 35.5 25.8875 35.175 26.05 34.7L28.6875 25.865C28.7843 25.533 28.8025 25.1831 28.7407 24.8429C28.6789 24.5026 28.5387 24.1815 28.3314 23.9047C28.124 23.628 27.8551 23.4034 27.5459 23.2485C27.2368 23.0936 26.8958 23.0128 26.55 23.0125Z" fill="url(#paint15_radial_9_3480)"/>
<g filter="url(#filter2_f_9_3480)">
<path d="M10.5287 11.155C10.2787 10.905 10.2787 10.5175 10.5287 10.2675L11.4537 9.3425C11.7037 9.0925 12.0912 9.0925 12.3412 9.3425C12.5912 9.5925 12.5912 9.98 12.3412 10.23L11.4037 11.155C11.1662 11.405 10.7662 11.405 10.5287 11.155Z" fill="#C8397E"/>
</g>
<path d="M10.5287 10.8688C10.2787 10.6188 10.2787 10.2313 10.5287 9.98125L11.4537 9.05625C11.7037 8.80625 12.0912 8.80625 12.3412 9.05625C12.5912 9.30625 12.5912 9.69375 12.3412 9.94375L11.4037 10.8688C11.1662 11.1188 10.7662 11.1188 10.5287 10.8688Z" fill="url(#paint16_linear_9_3480)"/>
<g filter="url(#filter3_f_9_3480)">
<path d="M9.71251 20.925C9.64954 20.8637 9.59949 20.7905 9.56531 20.7095C9.53113 20.6286 9.51352 20.5416 9.51352 20.4537C9.51352 20.3659 9.53113 20.2789 9.56531 20.198C9.59949 20.117 9.64954 20.0438 9.71251 19.9825L10.695 19C10.7563 18.9368 10.8296 18.8866 10.9107 18.8523C10.9918 18.818 11.0789 18.8004 11.1669 18.8004C11.2549 18.8004 11.342 18.818 11.4231 18.8523C11.5041 18.8866 11.5775 18.9368 11.6388 19C11.7017 19.0613 11.7518 19.1345 11.786 19.2155C11.8201 19.2964 11.8378 19.3834 11.8378 19.4712C11.8378 19.5591 11.8201 19.6461 11.786 19.727C11.7518 19.808 11.7017 19.8812 11.6388 19.9425L10.655 20.9262C10.5937 20.9892 10.5205 21.0393 10.4395 21.0735C10.3586 21.1076 10.2716 21.1252 10.1838 21.1252C10.0959 21.1252 10.0089 21.1076 9.92799 21.0735C9.84705 21.0393 9.77378 20.9892 9.71251 20.9262V20.925Z" fill="#DC41B7"/>
</g>
<path d="M9.82501 20.6375C9.57501 20.3875 9.57501 20 9.82501 19.75L10.75 18.825C11 18.575 11.3875 18.575 11.6375 18.825C11.8875 19.075 11.8875 19.4625 11.6375 19.7125L10.7125 20.6375C10.475 20.8875 10.075 20.8875 9.82501 20.6375Z" fill="url(#paint17_linear_9_3480)"/>
<g filter="url(#filter4_f_9_3480)">
<path d="M4.38251 19.0238C4.13251 18.7738 4.13251 18.3862 4.38251 18.1362L5.30751 17.2113C5.55751 16.9613 5.94501 16.9613 6.19501 17.2113C6.44501 17.4613 6.44501 17.8488 6.19501 18.0988L5.27001 19.0238C5.02001 19.2613 4.63251 19.2613 4.38251 19.0238Z" fill="#D53275"/>
</g>
<path d="M4.12875 19.0238C3.87875 18.7738 3.87875 18.3862 4.12875 18.1362L5.05375 17.2113C5.30375 16.9613 5.69125 16.9613 5.94125 17.2113C6.19125 17.4613 6.19125 17.8488 5.94125 18.0988L5.01625 19.0238C4.76625 19.2613 4.37875 19.2613 4.12875 19.0238Z" fill="url(#paint18_linear_9_3480)"/>
<g filter="url(#filter5_f_9_3480)">
<path d="M24.22 19.39C24.1552 19.3387 24.1013 19.2748 24.0616 19.2023C24.0218 19.1298 23.997 19.05 23.9886 18.9678C23.9802 18.8855 23.9884 18.8024 24.0127 18.7233C24.037 18.6443 24.0769 18.5709 24.13 18.5075L24.9575 17.4938C25.0088 17.4289 25.0727 17.3751 25.1452 17.3353C25.2177 17.2956 25.2975 17.2708 25.3797 17.2624C25.462 17.254 25.5451 17.2622 25.6242 17.2865C25.7032 17.3107 25.7766 17.3506 25.84 17.4038C26.115 17.6288 26.1525 18.0138 25.93 18.2875L25.1025 19.3C24.9953 19.4258 24.8437 19.5054 24.6793 19.5222C24.5149 19.539 24.3503 19.4916 24.22 19.39Z" fill="#C840AF"/>
</g>
<path d="M24.1237 19.0238C23.8737 18.7738 23.8737 18.3862 24.1237 18.1362L25.0487 17.2113C25.2987 16.9613 25.6862 16.9613 25.9362 17.2113C26.1862 17.4613 26.1862 17.8488 25.9362 18.0988L25.0113 19.0238C24.7612 19.2613 24.3612 19.2613 24.1237 19.0238Z" fill="url(#paint19_linear_9_3480)"/>
<path d="M24.1237 19.0238C23.8737 18.7738 23.8737 18.3862 24.1237 18.1362L25.0487 17.2113C25.2987 16.9613 25.6862 16.9613 25.9362 17.2113C26.1862 17.4613 26.1862 17.8488 25.9362 18.0988L25.0113 19.0238C24.7612 19.2613 24.3612 19.2613 24.1237 19.0238Z" fill="url(#paint20_radial_9_3480)"/>
<g filter="url(#filter6_f_9_3480)">
<path d="M20.5925 13.0413C20.8425 12.7913 21.23 12.7913 21.48 13.0413L22.405 13.9662C22.655 14.2162 22.655 14.6037 22.405 14.8537C22.155 15.1037 21.7675 15.1037 21.5175 14.8537L20.5925 13.9288C20.3425 13.6913 20.3425 13.2913 20.5925 13.0413Z" fill="url(#paint21_linear_9_3480)"/>
<path d="M20.5925 13.0413C20.8425 12.7913 21.23 12.7913 21.48 13.0413L22.405 13.9662C22.655 14.2162 22.655 14.6037 22.405 14.8537C22.155 15.1037 21.7675 15.1037 21.5175 14.8537L20.5925 13.9288C20.3425 13.6913 20.3425 13.2913 20.5925 13.0413Z" fill="#DA41D6"/>
</g>
<g filter="url(#filter7_f_9_3480)">
<path d="M6.55875 14.5725C6.55875 14.2225 6.83375 13.9475 7.18375 13.9475H8.49625C8.84625 13.9475 9.12125 14.2225 9.12125 14.5725C9.12125 14.9225 8.84625 15.1975 8.49625 15.1975H7.18375C6.83375 15.1975 6.55875 14.9225 6.55875 14.5725Z" fill="#B03F95"/>
</g>
<path d="M6.5 14.7875C6.5 14.4375 6.775 14.1625 7.125 14.1625H8.4375C8.7875 14.1625 9.0625 14.4375 9.0625 14.7875C9.0625 15.1375 8.7875 15.4125 8.4375 15.4125H7.125C6.775 15.4125 6.5 15.1375 6.5 14.7875Z" fill="url(#paint22_linear_9_3480)"/>
<path d="M6.5 14.7875C6.5 14.4375 6.775 14.1625 7.125 14.1625H8.4375C8.7875 14.1625 9.0625 14.4375 9.0625 14.7875C9.0625 15.1375 8.7875 15.4125 8.4375 15.4125H7.125C6.775 15.4125 6.5 15.1375 6.5 14.7875Z" fill="url(#paint23_radial_9_3480)"/>
<path d="M20.8075 12.7875C21.0575 12.5375 21.445 12.5375 21.695 12.7875L22.62 13.7125C22.87 13.9625 22.87 14.35 22.62 14.6C22.37 14.85 21.9825 14.85 21.7325 14.6L20.8075 13.675C20.5575 13.4375 20.5575 13.0375 20.8075 12.7875Z" fill="url(#paint24_linear_9_3480)"/>
<path d="M20.8075 12.7875C21.0575 12.5375 21.445 12.5375 21.695 12.7875L22.62 13.7125C22.87 13.9625 22.87 14.35 22.62 14.6C22.37 14.85 21.9825 14.85 21.7325 14.6L20.8075 13.675C20.5575 13.4375 20.5575 13.0375 20.8075 12.7875Z" fill="url(#paint25_radial_9_3480)"/>
<g filter="url(#filter8_f_9_3480)">
<path d="M5.25374 35.3712H24.89C26.165 35.3712 26.5962 34.575 26.73 34.1375C26.73 34.1375 29.105 26.6487 28.9587 26.0412C28.8687 25.72 28.475 25.6812 28.3587 25.9287L28.1712 26.3612L28.04 26.0412C27.9525 25.8412 27.5162 25.5837 27.0837 26.0412L26.1662 27.115C26.085 27.21 25.9412 27.2387 25.885 27.115L25.4625 26.1375C25.2475 25.6625 24.36 25.5475 23.665 26.18L22.68 27.115C22.4987 27.3025 22.2187 27.34 22.0425 27.115L21.18 26.04C20.745 25.5112 19.7212 25.7412 19.0625 26.23L18.0125 27.115C17.7587 27.2962 17.445 27.325 17.2075 27.115L16.2275 26.1375C15.6762 25.6912 14.545 25.5325 13.8725 26.18L12.8975 27.115C12.72 27.2525 12.3475 27.2737 12.1287 27.115L10.8512 26.04C10.3012 25.5687 9.24749 25.655 8.78249 26.23L8.07999 27.115C7.96749 27.245 7.75874 27.3025 7.49874 27.115L6.29874 26.04C5.82624 25.64 4.92374 25.6337 4.63124 26.23L4.29374 26.9825C4.29374 26.9825 4.20124 27.3025 4.03124 27.115L3.15124 26.04C2.52624 25.36 2.04624 26.04 1.95124 26.3612L1.76374 25.9275C1.60999 25.59 0.972494 25.9275 1.20124 26.7387L3.41374 34.1375C3.50749 34.4237 4.03249 35.3712 5.25374 35.3712Z" fill="url(#paint26_linear_9_3480)"/>
<path d="M5.25374 35.3712H24.89C26.165 35.3712 26.5962 34.575 26.73 34.1375C26.73 34.1375 29.105 26.6487 28.9587 26.0412C28.8687 25.72 28.475 25.6812 28.3587 25.9287L28.1712 26.3612L28.04 26.0412C27.9525 25.8412 27.5162 25.5837 27.0837 26.0412L26.1662 27.115C26.085 27.21 25.9412 27.2387 25.885 27.115L25.4625 26.1375C25.2475 25.6625 24.36 25.5475 23.665 26.18L22.68 27.115C22.4987 27.3025 22.2187 27.34 22.0425 27.115L21.18 26.04C20.745 25.5112 19.7212 25.7412 19.0625 26.23L18.0125 27.115C17.7587 27.2962 17.445 27.325 17.2075 27.115L16.2275 26.1375C15.6762 25.6912 14.545 25.5325 13.8725 26.18L12.8975 27.115C12.72 27.2525 12.3475 27.2737 12.1287 27.115L10.8512 26.04C10.3012 25.5687 9.24749 25.655 8.78249 26.23L8.07999 27.115C7.96749 27.245 7.75874 27.3025 7.49874 27.115L6.29874 26.04C5.82624 25.64 4.92374 25.6337 4.63124 26.23L4.29374 26.9825C4.29374 26.9825 4.20124 27.3025 4.03124 27.115L3.15124 26.04C2.52624 25.36 2.04624 26.04 1.95124 26.3612L1.76374 25.9275C1.60999 25.59 0.972494 25.9275 1.20124 26.7387L3.41374 34.1375C3.50749 34.4237 4.03249 35.3712 5.25374 35.3712Z" fill="url(#paint27_radial_9_3480)"/>
<path d="M5.25374 35.3712H24.89C26.165 35.3712 26.5962 34.575 26.73 34.1375C26.73 34.1375 29.105 26.6487 28.9587 26.0412C28.8687 25.72 28.475 25.6812 28.3587 25.9287L28.1712 26.3612L28.04 26.0412C27.9525 25.8412 27.5162 25.5837 27.0837 26.0412L26.1662 27.115C26.085 27.21 25.9412 27.2387 25.885 27.115L25.4625 26.1375C25.2475 25.6625 24.36 25.5475 23.665 26.18L22.68 27.115C22.4987 27.3025 22.2187 27.34 22.0425 27.115L21.18 26.04C20.745 25.5112 19.7212 25.7412 19.0625 26.23L18.0125 27.115C17.7587 27.2962 17.445 27.325 17.2075 27.115L16.2275 26.1375C15.6762 25.6912 14.545 25.5325 13.8725 26.18L12.8975 27.115C12.72 27.2525 12.3475 27.2737 12.1287 27.115L10.8512 26.04C10.3012 25.5687 9.24749 25.655 8.78249 26.23L8.07999 27.115C7.96749 27.245 7.75874 27.3025 7.49874 27.115L6.29874 26.04C5.82624 25.64 4.92374 25.6337 4.63124 26.23L4.29374 26.9825C4.29374 26.9825 4.20124 27.3025 4.03124 27.115L3.15124 26.04C2.52624 25.36 2.04624 26.04 1.95124 26.3612L1.76374 25.9275C1.60999 25.59 0.972494 25.9275 1.20124 26.7387L3.41374 34.1375C3.50749 34.4237 4.03249 35.3712 5.25374 35.3712Z" fill="url(#paint28_radial_9_3480)"/>
<path d="M5.25374 35.3712H24.89C26.165 35.3712 26.5962 34.575 26.73 34.1375C26.73 34.1375 29.105 26.6487 28.9587 26.0412C28.8687 25.72 28.475 25.6812 28.3587 25.9287L28.1712 26.3612L28.04 26.0412C27.9525 25.8412 27.5162 25.5837 27.0837 26.0412L26.1662 27.115C26.085 27.21 25.9412 27.2387 25.885 27.115L25.4625 26.1375C25.2475 25.6625 24.36 25.5475 23.665 26.18L22.68 27.115C22.4987 27.3025 22.2187 27.34 22.0425 27.115L21.18 26.04C20.745 25.5112 19.7212 25.7412 19.0625 26.23L18.0125 27.115C17.7587 27.2962 17.445 27.325 17.2075 27.115L16.2275 26.1375C15.6762 25.6912 14.545 25.5325 13.8725 26.18L12.8975 27.115C12.72 27.2525 12.3475 27.2737 12.1287 27.115L10.8512 26.04C10.3012 25.5687 9.24749 25.655 8.78249 26.23L8.07999 27.115C7.96749 27.245 7.75874 27.3025 7.49874 27.115L6.29874 26.04C5.82624 25.64 4.92374 25.6337 4.63124 26.23L4.29374 26.9825C4.29374 26.9825 4.20124 27.3025 4.03124 27.115L3.15124 26.04C2.52624 25.36 2.04624 26.04 1.95124 26.3612L1.76374 25.9275C1.60999 25.59 0.972494 25.9275 1.20124 26.7387L3.41374 34.1375C3.50749 34.4237 4.03249 35.3712 5.25374 35.3712Z" fill="url(#paint29_radial_9_3480)"/>
<path d="M5.25374 35.3712H24.89C26.165 35.3712 26.5962 34.575 26.73 34.1375C26.73 34.1375 29.105 26.6487 28.9587 26.0412C28.8687 25.72 28.475 25.6812 28.3587 25.9287L28.1712 26.3612L28.04 26.0412C27.9525 25.8412 27.5162 25.5837 27.0837 26.0412L26.1662 27.115C26.085 27.21 25.9412 27.2387 25.885 27.115L25.4625 26.1375C25.2475 25.6625 24.36 25.5475 23.665 26.18L22.68 27.115C22.4987 27.3025 22.2187 27.34 22.0425 27.115L21.18 26.04C20.745 25.5112 19.7212 25.7412 19.0625 26.23L18.0125 27.115C17.7587 27.2962 17.445 27.325 17.2075 27.115L16.2275 26.1375C15.6762 25.6912 14.545 25.5325 13.8725 26.18L12.8975 27.115C12.72 27.2525 12.3475 27.2737 12.1287 27.115L10.8512 26.04C10.3012 25.5687 9.24749 25.655 8.78249 26.23L8.07999 27.115C7.96749 27.245 7.75874 27.3025 7.49874 27.115L6.29874 26.04C5.82624 25.64 4.92374 25.6337 4.63124 26.23L4.29374 26.9825C4.29374 26.9825 4.20124 27.3025 4.03124 27.115L3.15124 26.04C2.52624 25.36 2.04624 26.04 1.95124 26.3612L1.76374 25.9275C1.60999 25.59 0.972494 25.9275 1.20124 26.7387L3.41374 34.1375C3.50749 34.4237 4.03249 35.3712 5.25374 35.3712Z" fill="url(#paint30_linear_9_3480)"/>
<path d="M5.25374 35.3712H24.89C26.165 35.3712 26.5962 34.575 26.73 34.1375C26.73 34.1375 29.105 26.6487 28.9587 26.0412C28.8687 25.72 28.475 25.6812 28.3587 25.9287L28.1712 26.3612L28.04 26.0412C27.9525 25.8412 27.5162 25.5837 27.0837 26.0412L26.1662 27.115C26.085 27.21 25.9412 27.2387 25.885 27.115L25.4625 26.1375C25.2475 25.6625 24.36 25.5475 23.665 26.18L22.68 27.115C22.4987 27.3025 22.2187 27.34 22.0425 27.115L21.18 26.04C20.745 25.5112 19.7212 25.7412 19.0625 26.23L18.0125 27.115C17.7587 27.2962 17.445 27.325 17.2075 27.115L16.2275 26.1375C15.6762 25.6912 14.545 25.5325 13.8725 26.18L12.8975 27.115C12.72 27.2525 12.3475 27.2737 12.1287 27.115L10.8512 26.04C10.3012 25.5687 9.24749 25.655 8.78249 26.23L8.07999 27.115C7.96749 27.245 7.75874 27.3025 7.49874 27.115L6.29874 26.04C5.82624 25.64 4.92374 25.6337 4.63124 26.23L4.29374 26.9825C4.29374 26.9825 4.20124 27.3025 4.03124 27.115L3.15124 26.04C2.52624 25.36 2.04624 26.04 1.95124 26.3612L1.76374 25.9275C1.60999 25.59 0.972494 25.9275 1.20124 26.7387L3.41374 34.1375C3.50749 34.4237 4.03249 35.3712 5.25374 35.3712Z" fill="#856E5F"/>
</g>
<g filter="url(#filter9_f_9_3480)">
<path d="M17.765 10.8688C17.515 10.6188 17.515 10.2313 17.765 9.98125L18.69 9.05625C18.94 8.80625 19.3275 8.80625 19.5775 9.05625C19.8275 9.30625 19.8275 9.69375 19.5775 9.94375L18.6525 10.8688C18.4025 11.1188 18.0025 11.1188 17.765 10.8688Z" fill="#954093"/>
</g>
<g filter="url(#filter10_f_9_3480)">
<path d="M17.7538 9.65L18.6475 8.815C18.8975 8.565 19.5313 8.61 19.7363 8.99C19.3063 9.39125 18.2525 9.52375 17.7538 9.65Z" fill="#954093"/>
</g>
<path d="M17.8625 10.7125C17.6125 10.4625 17.6125 10.075 17.8625 9.825L18.7875 8.9C19.0375 8.65 19.425 8.65 19.675 8.9C19.925 9.15 19.925 9.5375 19.675 9.7875L18.75 10.7125C18.5 10.9625 18.1 10.9625 17.8625 10.7125Z" fill="url(#paint31_linear_9_3480)"/>
<path d="M17.8625 10.7125C17.6125 10.4625 17.6125 10.075 17.8625 9.825L18.7875 8.9C19.0375 8.65 19.425 8.65 19.675 8.9C19.925 9.15 19.925 9.5375 19.675 9.7875L18.75 10.7125C18.5 10.9625 18.1 10.9625 17.8625 10.7125Z" fill="url(#paint32_radial_9_3480)"/>
<g filter="url(#filter11_f_9_3480)">
<path d="M21.075 21.055C21.325 20.805 21.325 20.4175 21.075 20.1675L20.15 19.2425C19.9 18.9925 19.5125 18.9925 19.2625 19.2425C19.0125 19.4925 19.0125 19.88 19.2625 20.13L20.1875 21.055C20.4375 21.305 20.8375 21.305 21.075 21.055Z" fill="#C53DD2"/>
</g>
<path d="M21.0875 20.6375C21.3375 20.3875 21.3375 20 21.0875 19.75L20.1625 18.825C19.9125 18.575 19.525 18.575 19.275 18.825C19.025 19.075 19.025 19.4625 19.275 19.7125L20.2 20.6375C20.45 20.8875 20.85 20.8875 21.0875 20.6375Z" fill="url(#paint33_linear_9_3480)"/>
<path d="M21.0875 20.6375C21.3375 20.3875 21.3375 20 21.0875 19.75L20.1625 18.825C19.9125 18.575 19.525 18.575 19.275 18.825C19.025 19.075 19.025 19.4625 19.275 19.7125L20.2 20.6375C20.45 20.8875 20.85 20.8875 21.0875 20.6375Z" fill="url(#paint34_radial_9_3480)"/>
<path d="M4.99999 35.5H25C26.3 35.5 26.7387 34.6925 26.875 34.25C26.875 34.25 29.295 26.66 29.145 26.045C29.0525 25.72 28.6525 25.6812 28.5325 25.9312L28.3425 26.3687L28.2087 26.045C28.1212 25.845 27.6762 25.5825 27.235 26.045L26.3 27.1325C26.2175 27.2287 26.0725 27.2575 26.0137 27.1325L25.5837 26.1425C25.365 25.6612 24.46 25.545 23.7537 26.1862L22.75 27.1337C22.565 27.3237 22.28 27.36 22.1 27.1337L21.2225 26.0463C20.7787 25.5088 19.735 25.7413 19.065 26.2363L17.9962 27.1337C17.7375 27.3162 17.4162 27.3462 17.175 27.1337L16.1775 26.1425C15.615 25.6912 14.4637 25.53 13.7775 26.1862L12.785 27.1337C12.605 27.2725 12.225 27.295 12.0025 27.1337L10.7012 26.0463C10.1387 25.5663 9.06749 25.6538 8.59374 26.2363L7.87874 27.1337C7.76249 27.2662 7.55124 27.3237 7.28749 27.1337L6.06499 26.0463C5.58249 25.64 4.66374 25.6325 4.36624 26.2363L4.02249 26.9987C4.02249 26.9987 3.92749 27.3237 3.75499 27.1337L2.85874 26.0463C2.22124 25.355 1.73249 26.0462 1.63624 26.37L1.44624 25.93C1.28749 25.5887 0.638736 25.93 0.872486 26.7512L3.12499 34.25C3.22124 34.54 3.75499 35.5 4.99999 35.5Z" fill="url(#paint35_linear_9_3480)"/>
<path d="M4.99999 35.5H25C26.3 35.5 26.7387 34.6925 26.875 34.25C26.875 34.25 29.295 26.66 29.145 26.045C29.0525 25.72 28.6525 25.6812 28.5325 25.9312L28.3425 26.3687L28.2087 26.045C28.1212 25.845 27.6762 25.5825 27.235 26.045L26.3 27.1325C26.2175 27.2287 26.0725 27.2575 26.0137 27.1325L25.5837 26.1425C25.365 25.6612 24.46 25.545 23.7537 26.1862L22.75 27.1337C22.565 27.3237 22.28 27.36 22.1 27.1337L21.2225 26.0463C20.7787 25.5088 19.735 25.7413 19.065 26.2363L17.9962 27.1337C17.7375 27.3162 17.4162 27.3462 17.175 27.1337L16.1775 26.1425C15.615 25.6912 14.4637 25.53 13.7775 26.1862L12.785 27.1337C12.605 27.2725 12.225 27.295 12.0025 27.1337L10.7012 26.0463C10.1387 25.5663 9.06749 25.6538 8.59374 26.2363L7.87874 27.1337C7.76249 27.2662 7.55124 27.3237 7.28749 27.1337L6.06499 26.0463C5.58249 25.64 4.66374 25.6325 4.36624 26.2363L4.02249 26.9987C4.02249 26.9987 3.92749 27.3237 3.75499 27.1337L2.85874 26.0463C2.22124 25.355 1.73249 26.0462 1.63624 26.37L1.44624 25.93C1.28749 25.5887 0.638736 25.93 0.872486 26.7512L3.12499 34.25C3.22124 34.54 3.75499 35.5 4.99999 35.5Z" fill="url(#paint36_radial_9_3480)"/>
<path d="M4.99999 35.5H25C26.3 35.5 26.7387 34.6925 26.875 34.25C26.875 34.25 29.295 26.66 29.145 26.045C29.0525 25.72 28.6525 25.6812 28.5325 25.9312L28.3425 26.3687L28.2087 26.045C28.1212 25.845 27.6762 25.5825 27.235 26.045L26.3 27.1325C26.2175 27.2287 26.0725 27.2575 26.0137 27.1325L25.5837 26.1425C25.365 25.6612 24.46 25.545 23.7537 26.1862L22.75 27.1337C22.565 27.3237 22.28 27.36 22.1 27.1337L21.2225 26.0463C20.7787 25.5088 19.735 25.7413 19.065 26.2363L17.9962 27.1337C17.7375 27.3162 17.4162 27.3462 17.175 27.1337L16.1775 26.1425C15.615 25.6912 14.4637 25.53 13.7775 26.1862L12.785 27.1337C12.605 27.2725 12.225 27.295 12.0025 27.1337L10.7012 26.0463C10.1387 25.5663 9.06749 25.6538 8.59374 26.2363L7.87874 27.1337C7.76249 27.2662 7.55124 27.3237 7.28749 27.1337L6.06499 26.0463C5.58249 25.64 4.66374 25.6325 4.36624 26.2363L4.02249 26.9987C4.02249 26.9987 3.92749 27.3237 3.75499 27.1337L2.85874 26.0463C2.22124 25.355 1.73249 26.0462 1.63624 26.37L1.44624 25.93C1.28749 25.5887 0.638736 25.93 0.872486 26.7512L3.12499 34.25C3.22124 34.54 3.75499 35.5 4.99999 35.5Z" fill="url(#paint37_radial_9_3480)"/>
<path d="M4.99999 35.5H25C26.3 35.5 26.7387 34.6925 26.875 34.25C26.875 34.25 29.295 26.66 29.145 26.045C29.0525 25.72 28.6525 25.6812 28.5325 25.9312L28.3425 26.3687L28.2087 26.045C28.1212 25.845 27.6762 25.5825 27.235 26.045L26.3 27.1325C26.2175 27.2287 26.0725 27.2575 26.0137 27.1325L25.5837 26.1425C25.365 25.6612 24.46 25.545 23.7537 26.1862L22.75 27.1337C22.565 27.3237 22.28 27.36 22.1 27.1337L21.2225 26.0463C20.7787 25.5088 19.735 25.7413 19.065 26.2363L17.9962 27.1337C17.7375 27.3162 17.4162 27.3462 17.175 27.1337L16.1775 26.1425C15.615 25.6912 14.4637 25.53 13.7775 26.1862L12.785 27.1337C12.605 27.2725 12.225 27.295 12.0025 27.1337L10.7012 26.0463C10.1387 25.5663 9.06749 25.6538 8.59374 26.2363L7.87874 27.1337C7.76249 27.2662 7.55124 27.3237 7.28749 27.1337L6.06499 26.0463C5.58249 25.64 4.66374 25.6325 4.36624 26.2363L4.02249 26.9987C4.02249 26.9987 3.92749 27.3237 3.75499 27.1337L2.85874 26.0463C2.22124 25.355 1.73249 26.0462 1.63624 26.37L1.44624 25.93C1.28749 25.5887 0.638736 25.93 0.872486 26.7512L3.12499 34.25C3.22124 34.54 3.75499 35.5 4.99999 35.5Z" fill="url(#paint38_radial_9_3480)"/>
<path d="M4.99999 35.5H25C26.3 35.5 26.7387 34.6925 26.875 34.25C26.875 34.25 29.295 26.66 29.145 26.045C29.0525 25.72 28.6525 25.6812 28.5325 25.9312L28.3425 26.3687L28.2087 26.045C28.1212 25.845 27.6762 25.5825 27.235 26.045L26.3 27.1325C26.2175 27.2287 26.0725 27.2575 26.0137 27.1325L25.5837 26.1425C25.365 25.6612 24.46 25.545 23.7537 26.1862L22.75 27.1337C22.565 27.3237 22.28 27.36 22.1 27.1337L21.2225 26.0463C20.7787 25.5088 19.735 25.7413 19.065 26.2363L17.9962 27.1337C17.7375 27.3162 17.4162 27.3462 17.175 27.1337L16.1775 26.1425C15.615 25.6912 14.4637 25.53 13.7775 26.1862L12.785 27.1337C12.605 27.2725 12.225 27.295 12.0025 27.1337L10.7012 26.0463C10.1387 25.5663 9.06749 25.6538 8.59374 26.2363L7.87874 27.1337C7.76249 27.2662 7.55124 27.3237 7.28749 27.1337L6.06499 26.0463C5.58249 25.64 4.66374 25.6325 4.36624 26.2363L4.02249 26.9987C4.02249 26.9987 3.92749 27.3237 3.75499 27.1337L2.85874 26.0463C2.22124 25.355 1.73249 26.0462 1.63624 26.37L1.44624 25.93C1.28749 25.5887 0.638736 25.93 0.872486 26.7512L3.12499 34.25C3.22124 34.54 3.75499 35.5 4.99999 35.5Z" fill="url(#paint39_linear_9_3480)"/>
<path d="M4.99999 35.5H25C26.3 35.5 26.7387 34.6925 26.875 34.25C26.875 34.25 29.295 26.66 29.145 26.045C29.0525 25.72 28.6525 25.6812 28.5325 25.9312L28.3425 26.3687L28.2087 26.045C28.1212 25.845 27.6762 25.5825 27.235 26.045L26.3 27.1325C26.2175 27.2287 26.0725 27.2575 26.0137 27.1325L25.5837 26.1425C25.365 25.6612 24.46 25.545 23.7537 26.1862L22.75 27.1337C22.565 27.3237 22.28 27.36 22.1 27.1337L21.2225 26.0463C20.7787 25.5088 19.735 25.7413 19.065 26.2363L17.9962 27.1337C17.7375 27.3162 17.4162 27.3462 17.175 27.1337L16.1775 26.1425C15.615 25.6912 14.4637 25.53 13.7775 26.1862L12.785 27.1337C12.605 27.2725 12.225 27.295 12.0025 27.1337L10.7012 26.0463C10.1387 25.5663 9.06749 25.6538 8.59374 26.2363L7.87874 27.1337C7.76249 27.2662 7.55124 27.3237 7.28749 27.1337L6.06499 26.0463C5.58249 25.64 4.66374 25.6325 4.36624 26.2363L4.02249 26.9987C4.02249 26.9987 3.92749 27.3237 3.75499 27.1337L2.85874 26.0463C2.22124 25.355 1.73249 26.0462 1.63624 26.37L1.44624 25.93C1.28749 25.5887 0.638736 25.93 0.872486 26.7512L3.12499 34.25C3.22124 34.54 3.75499 35.5 4.99999 35.5Z" fill="url(#paint40_linear_9_3480)"/>
<path d="M4.99999 35.5H25C26.3 35.5 26.7387 34.6925 26.875 34.25C26.875 34.25 29.295 26.66 29.145 26.045C29.0525 25.72 28.6525 25.6812 28.5325 25.9312L28.3425 26.3687L28.2087 26.045C28.1212 25.845 27.6762 25.5825 27.235 26.045L26.3 27.1325C26.2175 27.2287 26.0725 27.2575 26.0137 27.1325L25.5837 26.1425C25.365 25.6612 24.46 25.545 23.7537 26.1862L22.75 27.1337C22.565 27.3237 22.28 27.36 22.1 27.1337L21.2225 26.0463C20.7787 25.5088 19.735 25.7413 19.065 26.2363L17.9962 27.1337C17.7375 27.3162 17.4162 27.3462 17.175 27.1337L16.1775 26.1425C15.615 25.6912 14.4637 25.53 13.7775 26.1862L12.785 27.1337C12.605 27.2725 12.225 27.295 12.0025 27.1337L10.7012 26.0463C10.1387 25.5663 9.06749 25.6538 8.59374 26.2363L7.87874 27.1337C7.76249 27.2662 7.55124 27.3237 7.28749 27.1337L6.06499 26.0463C5.58249 25.64 4.66374 25.6325 4.36624 26.2363L4.02249 26.9987C4.02249 26.9987 3.92749 27.3237 3.75499 27.1337L2.85874 26.0463C2.22124 25.355 1.73249 26.0462 1.63624 26.37L1.44624 25.93C1.28749 25.5887 0.638736 25.93 0.872486 26.7512L3.12499 34.25C3.22124 34.54 3.75499 35.5 4.99999 35.5Z" fill="url(#paint41_linear_9_3480)"/>
<g filter="url(#filter12_f_9_3480)">
<path d="M5.2625 35.3712H24.735C26.0013 35.3712 26.4287 34.6888 26.56 34.3138C26.56 34.3138 27.2275 32.2038 27.8612 30.305C28.3325 28.8938 28.7638 27.5988 28.7013 27.3775L28.7 27.3738C28.6125 27.1013 28.6013 27.07 28.4875 27.28L28.3 27.6513L28.17 27.3762C28.085 27.2062 27.5975 26.985 27.1675 27.3762L26.3275 28.2975C26.1525 28.5175 25.9475 28.57 25.82 28.2975C25.82 28.2975 25.5763 27.7725 25.3813 27.3775C25.185 26.9825 24.3937 26.84 23.8475 27.3775L22.92 28.2975C22.735 28.5525 22.2163 28.6325 21.9125 28.2975L21.0575 27.3775C20.625 26.9238 19.605 27.065 19.0425 27.5388C18.4813 28.0113 18.0563 28.2975 18.0563 28.2975C17.7738 28.5 17.3725 28.5525 17.1175 28.2975L15.9963 27.28C15.45 26.8975 14.73 26.725 14.0625 27.28L12.8425 28.2975C12.5975 28.5088 12.1675 28.5175 11.895 28.2975L10.615 27.28C10.0688 26.8762 9.3675 26.7887 8.90625 27.28L8.06625 28.2975C7.89125 28.5088 7.43125 28.49 7.22625 28.2975L6.06375 27.28C5.65375 26.885 4.93875 26.77 4.64875 27.28C4.64875 27.28 4.29625 27.9737 4.19875 28.1837C4.10125 28.3937 3.84875 28.4288 3.6525 28.2L3.04625 27.28C2.42625 26.6962 1.9625 27.3775 1.87 27.6513L1.68375 27.28C1.53 26.9912 1.29625 27.1688 1.52375 27.8638L2.265 30.3237L3.43875 34.3138C3.53125 34.56 4.05125 35.3712 5.26375 35.3712H5.2625Z" fill="url(#paint42_linear_9_3480)"/>
<path d="M5.2625 35.3712H24.735C26.0013 35.3712 26.4287 34.6888 26.56 34.3138C26.56 34.3138 27.2275 32.2038 27.8612 30.305C28.3325 28.8938 28.7638 27.5988 28.7013 27.3775L28.7 27.3738C28.6125 27.1013 28.6013 27.07 28.4875 27.28L28.3 27.6513L28.17 27.3762C28.085 27.2062 27.5975 26.985 27.1675 27.3762L26.3275 28.2975C26.1525 28.5175 25.9475 28.57 25.82 28.2975C25.82 28.2975 25.5763 27.7725 25.3813 27.3775C25.185 26.9825 24.3937 26.84 23.8475 27.3775L22.92 28.2975C22.735 28.5525 22.2163 28.6325 21.9125 28.2975L21.0575 27.3775C20.625 26.9238 19.605 27.065 19.0425 27.5388C18.4813 28.0113 18.0563 28.2975 18.0563 28.2975C17.7738 28.5 17.3725 28.5525 17.1175 28.2975L15.9963 27.28C15.45 26.8975 14.73 26.725 14.0625 27.28L12.8425 28.2975C12.5975 28.5088 12.1675 28.5175 11.895 28.2975L10.615 27.28C10.0688 26.8762 9.3675 26.7887 8.90625 27.28L8.06625 28.2975C7.89125 28.5088 7.43125 28.49 7.22625 28.2975L6.06375 27.28C5.65375 26.885 4.93875 26.77 4.64875 27.28C4.64875 27.28 4.29625 27.9737 4.19875 28.1837C4.10125 28.3937 3.84875 28.4288 3.6525 28.2L3.04625 27.28C2.42625 26.6962 1.9625 27.3775 1.87 27.6513L1.68375 27.28C1.53 26.9912 1.29625 27.1688 1.52375 27.8638L2.265 30.3237L3.43875 34.3138C3.53125 34.56 4.05125 35.3712 5.26375 35.3712H5.2625Z" fill="url(#paint43_radial_9_3480)"/>
<path d="M5.2625 35.3712H24.735C26.0013 35.3712 26.4287 34.6888 26.56 34.3138C26.56 34.3138 27.2275 32.2038 27.8612 30.305C28.3325 28.8938 28.7638 27.5988 28.7013 27.3775L28.7 27.3738C28.6125 27.1013 28.6013 27.07 28.4875 27.28L28.3 27.6513L28.17 27.3762C28.085 27.2062 27.5975 26.985 27.1675 27.3762L26.3275 28.2975C26.1525 28.5175 25.9475 28.57 25.82 28.2975C25.82 28.2975 25.5763 27.7725 25.3813 27.3775C25.185 26.9825 24.3937 26.84 23.8475 27.3775L22.92 28.2975C22.735 28.5525 22.2163 28.6325 21.9125 28.2975L21.0575 27.3775C20.625 26.9238 19.605 27.065 19.0425 27.5388C18.4813 28.0113 18.0563 28.2975 18.0563 28.2975C17.7738 28.5 17.3725 28.5525 17.1175 28.2975L15.9963 27.28C15.45 26.8975 14.73 26.725 14.0625 27.28L12.8425 28.2975C12.5975 28.5088 12.1675 28.5175 11.895 28.2975L10.615 27.28C10.0688 26.8762 9.3675 26.7887 8.90625 27.28L8.06625 28.2975C7.89125 28.5088 7.43125 28.49 7.22625 28.2975L6.06375 27.28C5.65375 26.885 4.93875 26.77 4.64875 27.28C4.64875 27.28 4.29625 27.9737 4.19875 28.1837C4.10125 28.3937 3.84875 28.4288 3.6525 28.2L3.04625 27.28C2.42625 26.6962 1.9625 27.3775 1.87 27.6513L1.68375 27.28C1.53 26.9912 1.29625 27.1688 1.52375 27.8638L2.265 30.3237L3.43875 34.3138C3.53125 34.56 4.05125 35.3712 5.26375 35.3712H5.2625Z" fill="url(#paint44_radial_9_3480)"/>
<path d="M5.2625 35.3712H24.735C26.0013 35.3712 26.4287 34.6888 26.56 34.3138C26.56 34.3138 27.2275 32.2038 27.8612 30.305C28.3325 28.8938 28.7638 27.5988 28.7013 27.3775L28.7 27.3738C28.6125 27.1013 28.6013 27.07 28.4875 27.28L28.3 27.6513L28.17 27.3762C28.085 27.2062 27.5975 26.985 27.1675 27.3762L26.3275 28.2975C26.1525 28.5175 25.9475 28.57 25.82 28.2975C25.82 28.2975 25.5763 27.7725 25.3813 27.3775C25.185 26.9825 24.3937 26.84 23.8475 27.3775L22.92 28.2975C22.735 28.5525 22.2163 28.6325 21.9125 28.2975L21.0575 27.3775C20.625 26.9238 19.605 27.065 19.0425 27.5388C18.4813 28.0113 18.0563 28.2975 18.0563 28.2975C17.7738 28.5 17.3725 28.5525 17.1175 28.2975L15.9963 27.28C15.45 26.8975 14.73 26.725 14.0625 27.28L12.8425 28.2975C12.5975 28.5088 12.1675 28.5175 11.895 28.2975L10.615 27.28C10.0688 26.8762 9.3675 26.7887 8.90625 27.28L8.06625 28.2975C7.89125 28.5088 7.43125 28.49 7.22625 28.2975L6.06375 27.28C5.65375 26.885 4.93875 26.77 4.64875 27.28C4.64875 27.28 4.29625 27.9737 4.19875 28.1837C4.10125 28.3937 3.84875 28.4288 3.6525 28.2L3.04625 27.28C2.42625 26.6962 1.9625 27.3775 1.87 27.6513L1.68375 27.28C1.53 26.9912 1.29625 27.1688 1.52375 27.8638L2.265 30.3237L3.43875 34.3138C3.53125 34.56 4.05125 35.3712 5.26375 35.3712H5.2625Z" fill="url(#paint45_radial_9_3480)"/>
</g>
<g filter="url(#filter13_f_9_3480)">
<path d="M1.41624 26.4625C1.26249 26.1438 1.01749 26.4625 1.24499 27.2263L2.02499 29.7088C10.6537 34.2538 27.92 29.7675 27.92 29.7675C28.38 28.2463 28.9162 26.72 29.0037 26.4175C29.0912 26.1162 28.8362 26.0775 28.7212 26.31L28.31 27.2875L28.2425 26.4175C28.2425 26.1837 27.6275 26.0075 27.1675 26.5688L26.3275 27.5813C26.1525 27.8238 26.1812 27.8825 26.055 27.5813C26.055 27.5813 25.81 27.0038 25.615 26.5688C25.42 26.1338 24.395 25.9788 23.8475 26.5688L22.92 27.5813C22.735 27.8638 22.59 27.9513 22.285 27.5813L21.43 26.5688C20.9975 26.0688 19.605 26.2263 19.0425 26.7463C18.4812 27.2675 18.0562 27.5813 18.0562 27.5813C17.7737 27.805 17.3725 27.8638 17.1175 27.5813L15.9962 26.4625C15.45 26.0413 14.5737 25.85 13.9062 26.4625L12.6862 27.5813C12.4412 27.815 12.1675 27.8238 11.895 27.5813L10.615 26.4625C10.0687 26.0163 9.06499 25.92 8.60249 26.4625L7.76374 27.5813C7.58874 27.815 7.43124 27.7938 7.22624 27.5813L6.06374 26.4625C5.65374 26.0275 4.93874 25.9 4.64874 26.4625C4.64874 26.4625 4.29624 27.2263 4.19874 27.4575C4.10124 27.6888 3.84874 27.7263 3.65249 27.475L2.77874 26.4625C2.15874 25.82 1.69499 26.5688 1.60124 26.8713L1.41624 26.4625Z" fill="url(#paint46_linear_9_3480)"/>
<path d="M1.41624 26.4625C1.26249 26.1438 1.01749 26.4625 1.24499 27.2263L2.02499 29.7088C10.6537 34.2538 27.92 29.7675 27.92 29.7675C28.38 28.2463 28.9162 26.72 29.0037 26.4175C29.0912 26.1162 28.8362 26.0775 28.7212 26.31L28.31 27.2875L28.2425 26.4175C28.2425 26.1837 27.6275 26.0075 27.1675 26.5688L26.3275 27.5813C26.1525 27.8238 26.1812 27.8825 26.055 27.5813C26.055 27.5813 25.81 27.0038 25.615 26.5688C25.42 26.1338 24.395 25.9788 23.8475 26.5688L22.92 27.5813C22.735 27.8638 22.59 27.9513 22.285 27.5813L21.43 26.5688C20.9975 26.0688 19.605 26.2263 19.0425 26.7463C18.4812 27.2675 18.0562 27.5813 18.0562 27.5813C17.7737 27.805 17.3725 27.8638 17.1175 27.5813L15.9962 26.4625C15.45 26.0413 14.5737 25.85 13.9062 26.4625L12.6862 27.5813C12.4412 27.815 12.1675 27.8238 11.895 27.5813L10.615 26.4625C10.0687 26.0163 9.06499 25.92 8.60249 26.4625L7.76374 27.5813C7.58874 27.815 7.43124 27.7938 7.22624 27.5813L6.06374 26.4625C5.65374 26.0275 4.93874 25.9 4.64874 26.4625C4.64874 26.4625 4.29624 27.2263 4.19874 27.4575C4.10124 27.6888 3.84874 27.7263 3.65249 27.475L2.77874 26.4625C2.15874 25.82 1.69499 26.5688 1.60124 26.8713L1.41624 26.4625Z" fill="url(#paint47_radial_9_3480)"/>
<path d="M1.41624 26.4625C1.26249 26.1438 1.01749 26.4625 1.24499 27.2263L2.02499 29.7088C10.6537 34.2538 27.92 29.7675 27.92 29.7675C28.38 28.2463 28.9162 26.72 29.0037 26.4175C29.0912 26.1162 28.8362 26.0775 28.7212 26.31L28.31 27.2875L28.2425 26.4175C28.2425 26.1837 27.6275 26.0075 27.1675 26.5688L26.3275 27.5813C26.1525 27.8238 26.1812 27.8825 26.055 27.5813C26.055 27.5813 25.81 27.0038 25.615 26.5688C25.42 26.1338 24.395 25.9788 23.8475 26.5688L22.92 27.5813C22.735 27.8638 22.59 27.9513 22.285 27.5813L21.43 26.5688C20.9975 26.0688 19.605 26.2263 19.0425 26.7463C18.4812 27.2675 18.0562 27.5813 18.0562 27.5813C17.7737 27.805 17.3725 27.8638 17.1175 27.5813L15.9962 26.4625C15.45 26.0413 14.5737 25.85 13.9062 26.4625L12.6862 27.5813C12.4412 27.815 12.1675 27.8238 11.895 27.5813L10.615 26.4625C10.0687 26.0163 9.06499 25.92 8.60249 26.4625L7.76374 27.5813C7.58874 27.815 7.43124 27.7938 7.22624 27.5813L6.06374 26.4625C5.65374 26.0275 4.93874 25.9 4.64874 26.4625C4.64874 26.4625 4.29624 27.2263 4.19874 27.4575C4.10124 27.6888 3.84874 27.7263 3.65249 27.475L2.77874 26.4625C2.15874 25.82 1.69499 26.5688 1.60124 26.8713L1.41624 26.4625Z" fill="url(#paint48_radial_9_3480)"/>
<path d="M1.41624 26.4625C1.26249 26.1438 1.01749 26.4625 1.24499 27.2263L2.02499 29.7088C10.6537 34.2538 27.92 29.7675 27.92 29.7675C28.38 28.2463 28.9162 26.72 29.0037 26.4175C29.0912 26.1162 28.8362 26.0775 28.7212 26.31L28.31 27.2875L28.2425 26.4175C28.2425 26.1837 27.6275 26.0075 27.1675 26.5688L26.3275 27.5813C26.1525 27.8238 26.1812 27.8825 26.055 27.5813C26.055 27.5813 25.81 27.0038 25.615 26.5688C25.42 26.1338 24.395 25.9788 23.8475 26.5688L22.92 27.5813C22.735 27.8638 22.59 27.9513 22.285 27.5813L21.43 26.5688C20.9975 26.0688 19.605 26.2263 19.0425 26.7463C18.4812 27.2675 18.0562 27.5813 18.0562 27.5813C17.7737 27.805 17.3725 27.8638 17.1175 27.5813L15.9962 26.4625C15.45 26.0413 14.5737 25.85 13.9062 26.4625L12.6862 27.5813C12.4412 27.815 12.1675 27.8238 11.895 27.5813L10.615 26.4625C10.0687 26.0163 9.06499 25.92 8.60249 26.4625L7.76374 27.5813C7.58874 27.815 7.43124 27.7938 7.22624 27.5813L6.06374 26.4625C5.65374 26.0275 4.93874 25.9 4.64874 26.4625C4.64874 26.4625 4.29624 27.2263 4.19874 27.4575C4.10124 27.6888 3.84874 27.7263 3.65249 27.475L2.77874 26.4625C2.15874 25.82 1.69499 26.5688 1.60124 26.8713L1.41624 26.4625Z" fill="url(#paint49_radial_9_3480)"/>
</g>
<path fill-rule="evenodd" clip-rule="evenodd" d="M15.0162 29.4062C15.182 29.4062 15.341 29.4721 15.4582 29.5893C15.5754 29.7065 15.6412 29.8655 15.6412 30.0312V35.5H14.3912V30.0312C14.3912 29.8655 14.4571 29.7065 14.5743 29.5893C14.6915 29.4721 14.8505 29.4062 15.0162 29.4062Z" fill="url(#paint50_linear_9_3480)"/>
<path fill-rule="evenodd" clip-rule="evenodd" d="M8.07876 29.2625C8.1592 29.2461 8.24208 29.2456 8.32268 29.2612C8.40328 29.2769 8.48002 29.3082 8.5485 29.3535C8.61699 29.3987 8.67589 29.4571 8.72183 29.5251C8.76777 29.5931 8.79986 29.6696 8.81626 29.75L9.96126 35.4875H8.70376L7.59126 30C7.57483 29.9196 7.5744 29.8367 7.59001 29.7561C7.60562 29.6755 7.63695 29.5987 7.68223 29.5303C7.7275 29.4618 7.78582 29.4029 7.85386 29.3569C7.92189 29.311 7.99832 29.2789 8.07876 29.2625Z" fill="url(#paint51_linear_9_3480)"/>
<g filter="url(#filter14_f_9_3480)">
<path d="M15.69 6.90125C15.44 7.15125 15.0525 7.15125 14.8025 6.90125L13.8775 5.97625C13.6275 5.72625 13.6275 5.33875 13.8775 5.08875C14.1275 4.83875 14.515 4.83875 14.765 5.08875L15.69 6.02625C15.94 6.26375 15.94 6.66375 15.69 6.90125Z" fill="#C5419E"/>
</g>
<path d="M15.9063 6.55C15.6563 6.8 15.2687 6.8 15.0187 6.55L14.0938 5.625C13.8438 5.375 13.8438 4.9875 14.0938 4.7375C14.3438 4.4875 14.7312 4.4875 14.9813 4.7375L15.9063 5.675C16.1563 5.9125 16.1563 6.3125 15.9063 6.55Z" fill="url(#paint52_linear_9_3480)"/>
<path d="M15.9063 6.55C15.6563 6.8 15.2687 6.8 15.0187 6.55L14.0938 5.625C13.8438 5.375 13.8438 4.9875 14.0938 4.7375C14.3438 4.4875 14.7312 4.4875 14.9813 4.7375L15.9063 5.675C16.1563 5.9125 16.1563 6.3125 15.9063 6.55Z" fill="url(#paint53_radial_9_3480)"/>
<path fill-rule="evenodd" clip-rule="evenodd" d="M21.9887 29.26C22.1517 29.2904 22.2959 29.3842 22.3896 29.5208C22.4834 29.6575 22.5191 29.8258 22.4887 29.9887L21.4362 35.5H20.1775L21.2612 29.7613C21.2916 29.5983 21.3854 29.4541 21.5221 29.3603C21.6587 29.2666 21.827 29.2309 21.99 29.2613L21.9887 29.26Z" fill="url(#paint54_linear_9_3480)"/>
<g filter="url(#filter15_f_9_3480)">
<path d="M15.9063 15.4038C15.6563 15.6538 15.2687 15.6538 15.0187 15.4038L14.0938 14.4787C13.8438 14.2287 13.8438 13.8412 14.0938 13.5912C14.3438 13.3412 14.7312 13.3412 14.9813 13.5912L15.9063 14.5163C16.1563 14.7663 16.1563 15.1538 15.9063 15.4038Z" fill="#D939B9"/>
</g>
<path d="M15.9125 15.1688C15.6625 15.4188 15.275 15.4188 15.025 15.1688L14.1 14.2438C13.85 13.9938 13.85 13.6063 14.1 13.3563C14.35 13.1063 14.7375 13.1063 14.9875 13.3563L15.9125 14.2813C16.1625 14.5313 16.1625 14.9188 15.9125 15.1688Z" fill="url(#paint55_linear_9_3480)"/>
<path d="M15.9125 15.1688C15.6625 15.4188 15.275 15.4188 15.025 15.1688L14.1 14.2438C13.85 13.9938 13.85 13.6063 14.1 13.3563C14.35 13.1063 14.7375 13.1063 14.9875 13.3563L15.9125 14.2813C16.1625 14.5313 16.1625 14.9188 15.9125 15.1688Z" fill="url(#paint56_radial_9_3480)"/>
<g filter="url(#filter16_f_9_3480)">
<path d="M2.36249 26.0863L3.49624 27.4138" stroke="#64AFFF" stroke-width="0.25"/>
</g>
<defs>
<filter id="filter0_f_9_3480" x="3.84662" y="9.10125" width="22.4503" height="8.605" filterUnits="userSpaceOnUse" color-interpolation-filters="sRGB">
<feFlood flood-opacity="0" result="BackgroundImageFix"/>
<feBlend mode="normal" in="SourceGraphic" in2="BackgroundImageFix" result="shape"/>
<feGaussianBlur stdDeviation="0.25" result="effect1_foregroundBlur_9_3480"/>
</filter>
<filter id="filter1_f_9_3480" x="8.50375" y="4.40157" width="12.7575" height="6.25054" filterUnits="userSpaceOnUse" color-interpolation-filters="sRGB">
<feFlood flood-opacity="0" result="BackgroundImageFix"/>
<feBlend mode="normal" in="SourceGraphic" in2="BackgroundImageFix" result="shape"/>
<feGaussianBlur stdDeviation="0.25" result="effect1_foregroundBlur_9_3480"/>
</filter>
<filter id="filter2_f_9_3480" x="10.0912" y="8.905" width="2.6875" height="2.6875" filterUnits="userSpaceOnUse" color-interpolation-filters="sRGB">
<feFlood flood-opacity="0" result="BackgroundImageFix"/>
<feBlend mode="normal" in="SourceGraphic" in2="BackgroundImageFix" result="shape"/>
<feGaussianBlur stdDeviation="0.125" result="effect1_foregroundBlur_9_3480"/>
</filter>
<filter id="filter3_f_9_3480" x="9.01352" y="18.3004" width="3.32425" height="3.32488" filterUnits="userSpaceOnUse" color-interpolation-filters="sRGB">
<feFlood flood-opacity="0" result="BackgroundImageFix"/>
<feBlend mode="normal" in="SourceGraphic" in2="BackgroundImageFix" result="shape"/>
<feGaussianBlur stdDeviation="0.25" result="effect1_foregroundBlur_9_3480"/>
</filter>
<filter id="filter4_f_9_3480" x="3.94501" y="16.7738" width="2.6875" height="2.67812" filterUnits="userSpaceOnUse" color-interpolation-filters="sRGB">
<feFlood flood-opacity="0" result="BackgroundImageFix"/>
<feBlend mode="normal" in="SourceGraphic" in2="BackgroundImageFix" result="shape"/>
<feGaussianBlur stdDeviation="0.125" result="effect1_foregroundBlur_9_3480"/>
</filter>
<filter id="filter5_f_9_3480" x="23.7354" y="17.0092" width="2.58917" height="2.76633" filterUnits="userSpaceOnUse" color-interpolation-filters="sRGB">
<feFlood flood-opacity="0" result="BackgroundImageFix"/>
<feBlend mode="normal" in="SourceGraphic" in2="BackgroundImageFix" result="shape"/>
<feGaussianBlur stdDeviation="0.125" result="effect1_foregroundBlur_9_3480"/>
</filter>
<filter id="filter6_f_9_3480" x="20.155" y="12.6038" width="2.6875" height="2.6875" filterUnits="userSpaceOnUse" color-interpolation-filters="sRGB">
<feFlood flood-opacity="0" result="BackgroundImageFix"/>
<feBlend mode="normal" in="SourceGraphic" in2="BackgroundImageFix" result="shape"/>
<feGaussianBlur stdDeviation="0.125" result="effect1_foregroundBlur_9_3480"/>
</filter>
<filter id="filter7_f_9_3480" x="6.30875" y="13.6975" width="3.0625" height="1.75" filterUnits="userSpaceOnUse" color-interpolation-filters="sRGB">
<feFlood flood-opacity="0" result="BackgroundImageFix"/>
<feBlend mode="normal" in="SourceGraphic" in2="BackgroundImageFix" result="shape"/>
<feGaussianBlur stdDeviation="0.125" result="effect1_foregroundBlur_9_3480"/>
</filter>
<filter id="filter8_f_9_3480" x="1.05222" y="25.6358" width="28.013" height="9.83541" filterUnits="userSpaceOnUse" color-interpolation-filters="sRGB">
<feFlood flood-opacity="0" result="BackgroundImageFix"/>
<feBlend mode="normal" in="SourceGraphic" in2="BackgroundImageFix" result="shape"/>
<feGaussianBlur stdDeviation="0.05" result="effect1_foregroundBlur_9_3480"/>
</filter>
<filter id="filter9_f_9_3480" x="17.3275" y="8.61875" width="2.6875" height="2.6875" filterUnits="userSpaceOnUse" color-interpolation-filters="sRGB">
<feFlood flood-opacity="0" result="BackgroundImageFix"/>
<feBlend mode="normal" in="SourceGraphic" in2="BackgroundImageFix" result="shape"/>
<feGaussianBlur stdDeviation="0.125" result="effect1_foregroundBlur_9_3480"/>
</filter>
<filter id="filter10_f_9_3480" x="17.5038" y="8.40902" width="2.48251" height="1.49098" filterUnits="userSpaceOnUse" color-interpolation-filters="sRGB">
<feFlood flood-opacity="0" result="BackgroundImageFix"/>
<feBlend mode="normal" in="SourceGraphic" in2="BackgroundImageFix" result="shape"/>
<feGaussianBlur stdDeviation="0.125" result="effect1_foregroundBlur_9_3480"/>
</filter>
<filter id="filter11_f_9_3480" x="18.825" y="18.805" width="2.6875" height="2.6875" filterUnits="userSpaceOnUse" color-interpolation-filters="sRGB">
<feFlood flood-opacity="0" result="BackgroundImageFix"/>
<feBlend mode="normal" in="SourceGraphic" in2="BackgroundImageFix" result="shape"/>
<feGaussianBlur stdDeviation="0.125" result="effect1_foregroundBlur_9_3480"/>
</filter>
<filter id="filter12_f_9_3480" x="1.17892" y="26.6755" width="27.7784" height="8.94574" filterUnits="userSpaceOnUse" color-interpolation-filters="sRGB">
<feFlood flood-opacity="0" result="BackgroundImageFix"/>
<feBlend mode="normal" in="SourceGraphic" in2="BackgroundImageFix" result="shape"/>
<feGaussianBlur stdDeviation="0.125" result="effect1_foregroundBlur_9_3480"/>
</filter>
<filter id="filter13_f_9_3480" x="0.978527" y="25.8976" width="28.2171" height="6.02051" filterUnits="userSpaceOnUse" color-interpolation-filters="sRGB">
<feFlood flood-opacity="0" result="BackgroundImageFix"/>
<feBlend mode="normal" in="SourceGraphic" in2="BackgroundImageFix" result="shape"/>
<feGaussianBlur stdDeviation="0.087" result="effect1_foregroundBlur_9_3480"/>
</filter>
<filter id="filter14_f_9_3480" x="13.19" y="4.40125" width="3.1875" height="3.1875" filterUnits="userSpaceOnUse" color-interpolation-filters="sRGB">
<feFlood flood-opacity="0" result="BackgroundImageFix"/>
<feBlend mode="normal" in="SourceGraphic" in2="BackgroundImageFix" result="shape"/>
<feGaussianBlur stdDeviation="0.25" result="effect1_foregroundBlur_9_3480"/>
</filter>
<filter id="filter15_f_9_3480" x="13.4062" y="12.9037" width="3.1875" height="3.1875" filterUnits="userSpaceOnUse" color-interpolation-filters="sRGB">
<feFlood flood-opacity="0" result="BackgroundImageFix"/>
<feBlend mode="normal" in="SourceGraphic" in2="BackgroundImageFix" result="shape"/>
<feGaussianBlur stdDeviation="0.25" result="effect1_foregroundBlur_9_3480"/>
</filter>
<filter id="filter16_f_9_3480" x="2.01743" y="25.7551" width="1.82385" height="1.98986" filterUnits="userSpaceOnUse" color-interpolation-filters="sRGB">
<feFlood flood-opacity="0" result="BackgroundImageFix"/>
<feBlend mode="normal" in="SourceGraphic" in2="BackgroundImageFix" result="shape"/>
<feGaussianBlur stdDeviation="0.125" result="effect1_foregroundBlur_9_3480"/>
</filter>
<linearGradient id="paint0_linear_9_3480" x1="15.0125" y1="14.2625" x2="15.0125" y2="23.0125" gradientUnits="userSpaceOnUse">
<stop offset="0.418" stop-color="#FE5FD3"/>
<stop offset="0.856" stop-color="#EE49CD"/>
</linearGradient>
<linearGradient id="paint1_linear_9_3480" x1="15.0125" y1="14.2625" x2="15.0125" y2="23.0125" gradientUnits="userSpaceOnUse">
<stop offset="0.887" stop-color="#DF499E" stop-opacity="0"/>
<stop offset="1" stop-color="#D14276"/>
</linearGradient>
<radialGradient id="paint2_radial_9_3480" cx="0" cy="0" r="1" gradientUnits="userSpaceOnUse" gradientTransform="translate(27.2663 16.75) rotate(-179.269) scale(12.2541 4.61)">
<stop stop-color="#FF85DE"/>
<stop offset="1" stop-color="#FF86DD" stop-opacity="0"/>
</radialGradient>
<radialGradient id="paint3_radial_9_3480" cx="0" cy="0" r="1" gradientUnits="userSpaceOnUse" gradientTransform="translate(9.766 10.8905) rotate(-103.764) scale(23.9696 31.3426)">
<stop offset="0.682" stop-color="#B74CAB" stop-opacity="0"/>
<stop offset="0.913" stop-color="#B44AAC"/>
</radialGradient>
<radialGradient id="paint4_radial_9_3480" cx="0" cy="0" r="1" gradientUnits="userSpaceOnUse" gradientTransform="translate(-2.8125 11.8288) rotate(34.6293) scale(17.185 23.1235)">
<stop offset="0.348" stop-color="#D64984"/>
<stop offset="1" stop-color="#EA56A7" stop-opacity="0"/>
</radialGradient>
<radialGradient id="paint5_radial_9_3480" cx="0" cy="0" r="1" gradientUnits="userSpaceOnUse" gradientTransform="translate(16.875 20.0313) rotate(83.8534) scale(10.215 19.1377)">
<stop offset="0.794" stop-color="#E34E93" stop-opacity="0"/>
<stop offset="0.968" stop-color="#D74887"/>
</radialGradient>
<linearGradient id="paint6_linear_9_3480" x1="23.0475" y1="15.1875" x2="5.85999" y2="15.1875" gradientUnits="userSpaceOnUse">
<stop stop-color="#CA3AAB"/>
<stop offset="1" stop-color="#D3358D"/>
</linearGradient>
<linearGradient id="paint7_linear_9_3480" x1="15.0063" y1="8.0125" x2="15.0063" y2="16.7625" gradientUnits="userSpaceOnUse">
<stop stop-color="#FF85DE"/>
<stop offset="0.525" stop-color="#FC59CC"/>
<stop offset="1" stop-color="#E542CD"/>
</linearGradient>
<radialGradient id="paint8_radial_9_3480" cx="0" cy="0" r="1" gradientUnits="userSpaceOnUse" gradientTransform="translate(22.5788 10.3437) rotate(90) scale(3.4375 6.17187)">
<stop stop-color="#FF8DE6"/>
<stop offset="1" stop-color="#FF90E9" stop-opacity="0"/>
</radialGradient>
<radialGradient id="paint9_radial_9_3480" cx="0" cy="0" r="1" gradientUnits="userSpaceOnUse" gradientTransform="translate(6.48501 10.5) rotate(90) scale(5.625 12.5)">
<stop stop-color="#F543A3"/>
<stop offset="1" stop-color="#F54BAE" stop-opacity="0"/>
</radialGradient>
<radialGradient id="paint10_radial_9_3480" cx="0" cy="0" r="1" gradientUnits="userSpaceOnUse" gradientTransform="translate(18.8288 2.375) rotate(90) scale(5.9375 12.8028)">
<stop offset="0.171" stop-color="#FF8AE0"/>
<stop offset="1" stop-color="#FF8AE0" stop-opacity="0"/>
</radialGradient>
<radialGradient id="paint11_radial_9_3480" cx="0" cy="0" r="1" gradientUnits="userSpaceOnUse" gradientTransform="translate(18.8288 9.425) rotate(66.3183) scale(1.21566 2.1779)">
<stop offset="0.173" stop-color="#A941A3"/>
<stop offset="1" stop-color="#CD46C2" stop-opacity="0"/>
</radialGradient>
<radialGradient id="paint12_radial_9_3480" cx="0" cy="0" r="1" gradientUnits="userSpaceOnUse" gradientTransform="translate(11.9338 9.64125) rotate(6.7817) scale(1.4555 1.38366)">
<stop offset="0.359" stop-color="#E0417F"/>
<stop offset="1" stop-color="#E33E92" stop-opacity="0"/>
</radialGradient>
<linearGradient id="paint13_linear_9_3480" x1="15.0163" y1="23.0125" x2="15.0163" y2="35.5" gradientUnits="userSpaceOnUse">
<stop stop-color="#E8885E"/>
<stop offset="0.035" stop-color="#EF976C"/>
<stop offset="0.091" stop-color="#ECA079"/>
<stop offset="0.262" stop-color="#F0979B"/>
<stop offset="1" stop-color="#E8885E" stop-opacity="0"/>
</linearGradient>
<radialGradient id="paint14_radial_9_3480" cx="0" cy="0" r="1" gradientUnits="userSpaceOnUse" gradientTransform="translate(19.8438 24.485) rotate(90) scale(1.32813 12.3047)">
<stop stop-color="#FAB188"/>
<stop offset="1" stop-color="#FBB188" stop-opacity="0"/>
</radialGradient>
<radialGradient id="paint15_radial_9_3480" cx="0" cy="0" r="1" gradientUnits="userSpaceOnUse" gradientTransform="translate(15.7038 26.9062) rotate(90) scale(9.76562 21.5228)">
<stop offset="0.632" stop-color="#BE674C" stop-opacity="0"/>
<stop offset="0.784" stop-color="#C0674C"/>
</radialGradient>
<linearGradient id="paint16_linear_9_3480" x1="10.8787" y1="9.69875" x2="11.7975" y2="10.5588" gradientUnits="userSpaceOnUse">
<stop stop-color="#FCAC40"/>
<stop offset="0.403" stop-color="#FFA43C"/>
<stop offset="0.89" stop-color="#F37E41"/>
</linearGradient>
<linearGradient id="paint17_linear_9_3480" x1="10.235" y1="19.3475" x2="11.25" y2="20.305" gradientUnits="userSpaceOnUse">
<stop stop-color="#D4B3D6"/>
<stop offset="0.393" stop-color="#D8B6F8"/>
<stop offset="0.961" stop-color="#C887ED"/>
</linearGradient>
<linearGradient id="paint18_linear_9_3480" x1="4.4775" y1="17.85" x2="5.3925" y2="18.71" gradientUnits="userSpaceOnUse">
<stop stop-color="#E89C43"/>
<stop offset="0.403" stop-color="#F3913F"/>
<stop offset="0.89" stop-color="#EA6542"/>
</linearGradient>
<linearGradient id="paint19_linear_9_3480" x1="24.4737" y1="17.85" x2="25.6687" y2="18.9713" gradientUnits="userSpaceOnUse">
<stop stop-color="#FFA83E"/>
<stop offset="0.292" stop-color="#FFB84C"/>
<stop offset="0.55" stop-color="#FFA83A"/>
<stop offset="0.81" stop-color="#CC6E53"/>
</linearGradient>
<radialGradient id="paint20_radial_9_3480" cx="0" cy="0" r="1" gradientUnits="userSpaceOnUse" gradientTransform="translate(24.18 19.035) rotate(43.5891) scale(1.40221 0.816965)">
<stop stop-color="#EF6F45"/>
<stop offset="1" stop-color="#EE6E46" stop-opacity="0"/>
</radialGradient>
<linearGradient id="paint21_linear_9_3480" x1="22.0075" y1="13.4913" x2="21.0112" y2="14.5062" gradientUnits="userSpaceOnUse">
<stop offset="0.264" stop-color="#EFEBF7"/>
<stop offset="0.488" stop-color="#DBC8F4"/>
<stop offset="0.931" stop-color="#CA95EB"/>
</linearGradient>
<linearGradient id="paint22_linear_9_3480" x1="7.78125" y1="14.1625" x2="7.78125" y2="15.4125" gradientUnits="userSpaceOnUse">
<stop stop-color="#35A6FF"/>
<stop offset="0.461" stop-color="#299DFF"/>
<stop offset="1" stop-color="#396BFF"/>
</linearGradient>
<radialGradient id="paint23_radial_9_3480" cx="0" cy="0" r="1" gradientUnits="userSpaceOnUse" gradientTransform="translate(8.62504 14.5622) rotate(111.037) scale(0.544075 0.601888)">
<stop stop-color="#40AAFF"/>
<stop offset="1" stop-color="#43ACFF" stop-opacity="0"/>
</radialGradient>
<linearGradient id="paint24_linear_9_3480" x1="22.2212" y1="13.2375" x2="21.2262" y2="14.2525" gradientUnits="userSpaceOnUse">
<stop offset="0.264" stop-color="#EFEBF7"/>
<stop offset="0.488" stop-color="#DBC8F4"/>
<stop offset="0.931" stop-color="#CA95EB"/>
</linearGradient>
<radialGradient id="paint25_radial_9_3480" cx="0" cy="0" r="1" gradientUnits="userSpaceOnUse" gradientTransform="translate(22.575 14.6825) rotate(142.352) scale(0.86336 0.62874)">
<stop stop-color="#C187F1"/>
<stop offset="1" stop-color="#C595F1" stop-opacity="0"/>
</radialGradient>
<linearGradient id="paint26_linear_9_3480" x1="15.0587" y1="25.7362" x2="15.3425" y2="36.0262" gradientUnits="userSpaceOnUse">
<stop offset="0.823" stop-color="#58A0FF"/>
<stop offset="0.915" stop-color="#5473FF"/>
<stop offset="0.953" stop-color="#7163FF"/>
</linearGradient>
<radialGradient id="paint27_radial_9_3480" cx="0" cy="0" r="1" gradientUnits="userSpaceOnUse" gradientTransform="translate(15.455 25.7362) rotate(90) scale(10.4058 10.2012)">
<stop offset="0.195" stop-color="#508EFF"/>
<stop offset="1" stop-color="#508FFF" stop-opacity="0"/>
</radialGradient>
<radialGradient id="paint28_radial_9_3480" cx="0" cy="0" r="1" gradientUnits="userSpaceOnUse" gradientTransform="translate(1.87874 30.5537) scale(2.30103 6.71036)">
<stop offset="0.112" stop-color="#4686D7"/>
<stop offset="1" stop-color="#4992F5" stop-opacity="0"/>
</radialGradient>
<radialGradient id="paint29_radial_9_3480" cx="0" cy="0" r="1" gradientUnits="userSpaceOnUse" gradientTransform="translate(28.495 30.5537) rotate(-170.679) scale(3.57546 10.4241)">
<stop offset="0.112" stop-color="#4686D7"/>
<stop offset="1" stop-color="#4992F5" stop-opacity="0"/>
</radialGradient>
<linearGradient id="paint30_linear_9_3480" x1="28.6862" y1="27.97" x2="1.80249" y2="27.97" gradientUnits="userSpaceOnUse">
<stop offset="0.09" stop-color="#5FB6FF"/>
<stop offset="0.107" stop-color="#4394F4"/>
<stop offset="0.171" stop-color="#60B4FF"/>
<stop offset="0.25" stop-color="#5599FF"/>
<stop offset="0.327" stop-color="#65AFFF"/>
<stop offset="0.629" stop-color="#61AEFF"/>
<stop offset="0.806" stop-color="#62AFFF"/>
<stop offset="0.919" stop-color="#469DF3"/>
<stop offset="1" stop-color="#4F9BE5"/>
</linearGradient>
<linearGradient id="paint31_linear_9_3480" x1="18.2812" y1="9.42625" x2="19.2775" y2="10.4312" gradientUnits="userSpaceOnUse">
<stop stop-color="#388EF1"/>
<stop offset="0.356" stop-color="#3AA5FF"/>
<stop offset="0.917" stop-color="#4571FD"/>
</linearGradient>
<radialGradient id="paint32_radial_9_3480" cx="0" cy="0" r="1" gradientUnits="userSpaceOnUse" gradientTransform="translate(18.0875 10.6563) rotate(45.9707) scale(0.814951 0.537761)">
<stop stop-color="#3673FF"/>
<stop offset="1" stop-color="#3673FF" stop-opacity="0"/>
</radialGradient>
<linearGradient id="paint33_linear_9_3480" x1="20.6687" y1="19.3513" x2="19.6725" y2="20.3563" gradientUnits="userSpaceOnUse">
<stop stop-color="#39A1FF"/>
<stop offset="0.356" stop-color="#40A1FF"/>
<stop offset="0.917" stop-color="#3876FF"/>
</linearGradient>
<radialGradient id="paint34_radial_9_3480" cx="0" cy="0" r="1" gradientUnits="userSpaceOnUse" gradientTransform="translate(20.8625 20.58) rotate(134.029) scale(0.814952 0.537762)">
<stop stop-color="#3673FF"/>
<stop offset="1" stop-color="#3673FF" stop-opacity="0"/>
</radialGradient>
<linearGradient id="paint35_linear_9_3480" x1="14.9862" y1="25.7363" x2="15.2737" y2="36.1637" gradientUnits="userSpaceOnUse">
<stop offset="0.823" stop-color="#58A0FF"/>
<stop offset="0.915" stop-color="#5473FF"/>
<stop offset="0.953" stop-color="#7163FF"/>
</linearGradient>
<radialGradient id="paint36_radial_9_3480" cx="0" cy="0" r="1" gradientUnits="userSpaceOnUse" gradientTransform="translate(15.3912 25.7363) rotate(90) scale(10.545 10.3906)">
<stop offset="0.195" stop-color="#508EFF"/>
<stop offset="1" stop-color="#508FFF" stop-opacity="0"/>
</radialGradient>
<radialGradient id="paint37_radial_9_3480" cx="0" cy="0" r="1" gradientUnits="userSpaceOnUse" gradientTransform="translate(1.56249 30.6188) scale(2.34375 6.80015)">
<stop offset="0.112" stop-color="#4686D7"/>
<stop offset="1" stop-color="#4992F5" stop-opacity="0"/>
</radialGradient>
<radialGradient id="paint38_radial_9_3480" cx="0" cy="0" r="1" gradientUnits="userSpaceOnUse" gradientTransform="translate(28.6725 30.6187) rotate(-170.726) scale(3.64135 10.565)">
<stop offset="0.112" stop-color="#4686D7"/>
<stop offset="1" stop-color="#4992F5" stop-opacity="0"/>
</radialGradient>
<linearGradient id="paint39_linear_9_3480" x1="28.8675" y1="28" x2="1.48499" y2="28" gradientUnits="userSpaceOnUse">
<stop offset="0.011" stop-color="#59B9FF"/>
<stop offset="0.021" stop-color="#5FB6FF"/>
<stop offset="0.09" stop-color="#5FB6FF"/>
<stop offset="0.107" stop-color="#4394F4"/>
<stop offset="0.171" stop-color="#60B4FF"/>
<stop offset="0.25" stop-color="#5599FF"/>
<stop offset="0.327" stop-color="#65AFFF"/>
<stop offset="0.629" stop-color="#61AEFF"/>
<stop offset="0.806" stop-color="#62AFFF"/>
<stop offset="0.919" stop-color="#469DF3"/>
<stop offset="1" stop-color="#4F9BE5"/>
</linearGradient>
<linearGradient id="paint40_linear_9_3480" x1="28.1637" y1="30.2263" x2="26.875" y2="29.8363" gradientUnits="userSpaceOnUse">
<stop stop-color="#477CC5"/>
<stop offset="1" stop-color="#4881CB" stop-opacity="0"/>
</linearGradient>
<linearGradient id="paint41_linear_9_3480" x1="14.9862" y1="25.7363" x2="14.9862" y2="35.5" gradientUnits="userSpaceOnUse">
<stop offset="0.852" stop-color="#5676F9" stop-opacity="0"/>
<stop offset="1" stop-color="#5477F7"/>
</linearGradient>
<linearGradient id="paint42_linear_9_3480" x1="14.9863" y1="27.1162" x2="15.1975" y2="35.9337" gradientUnits="userSpaceOnUse">
<stop offset="0.823" stop-color="#58A0FF"/>
<stop offset="0.915" stop-color="#5473FF"/>
<stop offset="0.953" stop-color="#7163FF"/>
</linearGradient>
<radialGradient id="paint43_radial_9_3480" cx="0" cy="0" r="1" gradientUnits="userSpaceOnUse" gradientTransform="translate(15.38 27.1162) rotate(90) scale(8.91577 10.1163)">
<stop offset="0.195" stop-color="#508EFF"/>
<stop offset="1" stop-color="#508FFF" stop-opacity="0"/>
</radialGradient>
<radialGradient id="paint44_radial_9_3480" cx="0" cy="0" r="1" gradientUnits="userSpaceOnUse" gradientTransform="translate(1.9175 31.2437) scale(2.28187 5.7495)">
<stop offset="0.112" stop-color="#4686D7"/>
<stop offset="1" stop-color="#4992F5" stop-opacity="0"/>
</radialGradient>
<radialGradient id="paint45_radial_9_3480" cx="0" cy="0" r="1" gradientUnits="userSpaceOnUse" gradientTransform="translate(28.31 31.2438) rotate(-171.929) scale(3.53388 8.96131)">
<stop offset="0.112" stop-color="#4686D7"/>
<stop offset="1" stop-color="#4992F5" stop-opacity="0"/>
</radialGradient>
<linearGradient id="paint46_linear_9_3480" x1="14.9862" y1="26.2813" x2="15.2425" y2="35.99" gradientUnits="userSpaceOnUse">
<stop offset="0.823" stop-color="#58A0FF"/>
<stop offset="0.915" stop-color="#5473FF"/>
<stop offset="0.953" stop-color="#7163FF"/>
</linearGradient>
<radialGradient id="paint47_radial_9_3480" cx="0" cy="0" r="1" gradientUnits="userSpaceOnUse" gradientTransform="translate(15.38 26.2813) rotate(90) scale(9.81724 10.1163)">
<stop offset="0.195" stop-color="#508EFF"/>
<stop offset="1" stop-color="#508FFF" stop-opacity="0"/>
</radialGradient>
<radialGradient id="paint48_radial_9_3480" cx="0" cy="0" r="1" gradientUnits="userSpaceOnUse" gradientTransform="translate(1.91749 30.825) scale(2.28187 6.33081)">
<stop offset="0.112" stop-color="#4686D7"/>
<stop offset="1" stop-color="#4992F5" stop-opacity="0"/>
</radialGradient>
<radialGradient id="paint49_radial_9_3480" cx="0" cy="0" r="1" gradientUnits="userSpaceOnUse" gradientTransform="translate(28.31 30.825) rotate(-171.125) scale(3.54127 9.84677)">
<stop offset="0.112" stop-color="#4686D7"/>
<stop offset="1" stop-color="#4992F5" stop-opacity="0"/>
</radialGradient>
<linearGradient id="paint50_linear_9_3480" x1="15.0162" y1="29.4062" x2="15.0162" y2="35.5" gradientUnits="userSpaceOnUse">
<stop stop-color="#2B8BFF"/>
<stop offset="0.839" stop-color="#2C8AFF"/>
<stop offset="1" stop-color="#4063FF"/>
</linearGradient>
<linearGradient id="paint51_linear_9_3480" x1="8.77001" y1="29.25" x2="8.77001" y2="35.4875" gradientUnits="userSpaceOnUse">
<stop stop-color="#2B8BFF"/>
<stop offset="0.839" stop-color="#2C8AFF"/>
<stop offset="1" stop-color="#4063FF"/>
</linearGradient>
<linearGradient id="paint52_linear_9_3480" x1="15.5075" y1="5.1875" x2="14.5113" y2="6.20375" gradientUnits="userSpaceOnUse">
<stop offset="0.264" stop-color="#EFEBF7"/>
<stop offset="0.488" stop-color="#DBC8F4"/>
<stop offset="0.931" stop-color="#CA95EB"/>
</linearGradient>
<radialGradient id="paint53_radial_9_3480" cx="0" cy="0" r="1" gradientUnits="userSpaceOnUse" gradientTransform="translate(15.86 6.63125) rotate(142.352) scale(0.86336 0.628741)">
<stop stop-color="#C187F1"/>
<stop offset="1" stop-color="#C595F1" stop-opacity="0"/>
</radialGradient>
<linearGradient id="paint54_linear_9_3480" x1="21.3375" y1="29.25" x2="21.3375" y2="35.5" gradientUnits="userSpaceOnUse">
<stop stop-color="#2B8BFF"/>
<stop offset="0.839" stop-color="#2C8AFF"/>
<stop offset="1" stop-color="#4063FF"/>
</linearGradient>
<linearGradient id="paint55_linear_9_3480" x1="15.41" y1="13.7713" x2="14.5413" y2="14.69" gradientUnits="userSpaceOnUse">
<stop stop-color="#FFB248"/>
<stop offset="0.397" stop-color="#FFA43E"/>
<stop offset="0.847" stop-color="#F17F4D"/>
</linearGradient>
<radialGradient id="paint56_radial_9_3480" cx="0" cy="0" r="1" gradientUnits="userSpaceOnUse" gradientTransform="translate(14.7264 13.7617) rotate(52.786) scale(2.00224)">
<stop offset="0.77" stop-color="#DB644C" stop-opacity="0"/>
<stop offset="0.924" stop-color="#DB644C"/>
</radialGradient>
</defs>
</svg>
