<svg width="26" height="26" viewBox="0 0 26 26" fill="none" xmlns="http://www.w3.org/2000/svg">
<path d="M12.5 5.30171C12.5 5.57785 12.7239 5.80171 13 5.80171C13.2761 5.80171 13.5 5.57785 13.5 5.30171H12.5ZM13.5 0.501709C13.5 0.225567 13.2761 0.00170898 13 0.00170898C12.7239 0.00170898 12.5 0.225567 12.5 0.501709H13.5ZM12.5 24.5017C12.5 24.7779 12.7239 25.0017 13 25.0017C13.2761 25.0017 13.5 24.7779 13.5 24.5017H12.5ZM13.5 19.7017C13.5 19.4256 13.2761 19.2017 13 19.2017C12.7239 19.2017 12.5 19.4256 12.5 19.7017H13.5ZM20.2 12.0017C19.9239 12.0017 19.7 12.2256 19.7 12.5017C19.7 12.7779 19.9239 13.0017 20.2 13.0017V12.0017ZM25 13.0017C25.2761 13.0017 25.5 12.7779 25.5 12.5017C25.5 12.2256 25.2761 12.0017 25 12.0017V13.0017ZM1 12.0017C0.723858 12.0017 0.5 12.2256 0.5 12.5017C0.5 12.7779 0.723858 13.0017 1 13.0017V12.0017ZM5.8 13.0017C6.07614 13.0017 6.3 12.7779 6.3 12.5017C6.3 12.2256 6.07614 12.0017 5.8 12.0017V13.0017ZM22.1 12.5016C22.1 17.5274 18.0258 21.6016 13 21.6016V22.6016C18.5781 22.6016 23.1 18.0797 23.1 12.5016H22.1ZM13 21.6016C7.97421 21.6016 3.9 17.5274 3.9 12.5016H2.9C2.9 18.0797 7.42192 22.6016 13 22.6016V21.6016ZM3.9 12.5016C3.9 7.47585 7.97421 3.40164 13 3.40164V2.40164C7.42192 2.40164 2.9 6.92356 2.9 12.5016H3.9ZM13 3.40164C18.0258 3.40164 22.1 7.47585 22.1 12.5016H23.1C23.1 6.92356 18.5781 2.40164 13 2.40164V3.40164ZM13.5 5.30171V0.501709H12.5V5.30171H13.5ZM13.5 24.5017V19.7017H12.5V24.5017H13.5ZM20.2 13.0017H25V12.0017H20.2V13.0017ZM1 13.0017H5.8V12.0017H1V13.0017ZM16.1 12.5017C16.1 14.2138 14.7121 15.6017 13 15.6017V16.6017C15.2644 16.6017 17.1 14.7661 17.1 12.5017H16.1ZM13 15.6017C11.2879 15.6017 9.9 14.2138 9.9 12.5017H8.9C8.9 14.7661 10.7356 16.6017 13 16.6017V15.6017ZM9.9 12.5017C9.9 10.7896 11.2879 9.40171 13 9.40171V8.40171C10.7356 8.40171 8.9 10.2373 8.9 12.5017H9.9ZM13 9.40171C14.7121 9.40171 16.1 10.7896 16.1 12.5017H17.1C17.1 10.2373 15.2644 8.40171 13 8.40171V9.40171Z" fill="#000"/>
</svg>
