<svg width="18" height="18" viewBox="0 0 18 18" fill="none" xmlns="http://www.w3.org/2000/svg">
<path d="M13.4628 17.4809H4.03721C1.80698 17.4809 0 15.6658 0 13.4356V7.40416C0 6.29718 0.68372 4.90532 1.56279 4.2216L5.95 0.802995C7.2686 -0.222586 9.3767 -0.271424 10.7442 0.689041L15.7744 4.21346C16.743 4.88904 17.5 6.33788 17.5 7.51811V13.4437C17.5 15.6658 15.693 17.4809 13.4628 17.4809ZM6.6988 1.76346L2.31163 5.18207C1.73372 5.63788 1.22093 6.6716 1.22093 7.40416V13.4356C1.22093 14.9902 2.48256 16.26 4.03721 16.26H13.4628C15.0174 16.26 16.2791 14.9983 16.2791 13.4437V7.51811C16.2791 6.73672 15.7174 5.65416 15.0744 5.21462L10.0442 1.6902C9.1163 1.03904 7.586 1.0716 6.6988 1.76346Z" fill="#000"/>
<path d="M8.75 14.2251C8.4163 14.2251 8.1395 13.9484 8.1395 13.6146V11.1728C8.1395 10.8391 8.4163 10.5623 8.75 10.5623C9.0837 10.5623 9.3605 10.8391 9.3605 11.1728V13.6146C9.3605 13.9484 9.0837 14.2251 8.75 14.2251Z" fill="#000"/>
</svg>
