<svg width="25" height="24" viewBox="0 0 25 24" fill="none" xmlns="http://www.w3.org/2000/svg">
<path d="M20.2027 11.6341L23.5613 8.28823C23.8456 8.00014 24.0051 7.61165 24.0051 7.20686C24.0051 6.80207 23.8456 6.41357 23.5613 6.12548L17.8745 0.438712C17.5849 0.157373 17.197 0 16.7931 0C16.3893 0 16.0014 0.157373 15.7118 0.438712L0.445273 15.7052C0.293661 15.8565 0.176495 16.0388 0.101777 16.2395C0.0350369 16.4098 0.000525366 16.591 0 16.7739V22.4734C0 22.8782 0.160843 23.2666 0.447145 23.5529C0.733447 23.8392 1.12176 24 1.52665 24H22.8997C23.0347 24 23.1641 23.9464 23.2596 23.851C23.355 23.7555 23.4086 23.6261 23.4086 23.4911C23.4086 23.3562 23.355 23.2267 23.2596 23.1313C23.1641 23.0358 23.0347 22.9822 22.8997 22.9822H8.86729L20.2027 11.6341ZM16.4369 1.16387C16.4832 1.11616 16.5385 1.07824 16.5997 1.05233C16.6609 1.02643 16.7267 1.01308 16.7931 1.01308C16.8596 1.01308 16.9254 1.02643 16.9866 1.05233C17.0477 1.07824 17.1031 1.11616 17.1494 1.16387L22.8361 6.85064C22.8838 6.89689 22.9218 6.95226 22.9477 7.01345C22.9736 7.07464 22.9869 7.14041 22.9869 7.20686C22.9869 7.2733 22.9736 7.33907 22.9477 7.40027C22.9218 7.46146 22.8838 7.51682 22.8361 7.56308L19.8464 10.5528L13.4472 4.15356L16.4369 1.16387ZM4.79622 19.9289L16.2843 8.4409L19.1213 11.2779L7.63325 22.766L4.79622 19.9289ZM1.23404 16.3668L12.7221 4.87872L15.5591 7.71574L4.07107 19.2038L1.23404 16.3668ZM1.01777 22.4734V17.6008L3.71485 20.2852L6.39921 22.9822H1.52665C1.39169 22.9822 1.26225 22.9286 1.16681 22.8332C1.07138 22.7378 1.01777 22.6083 1.01777 22.4734Z" fill="#000"/>
</svg>
