<svg width="18" height="19" viewBox="0 0 18 19" fill="none" xmlns="http://www.w3.org/2000/svg">
<g clip-path="url(#clip0_110_938)">
<path d="M9 18.3973C13.4549 18.3973 17.0662 14.5853 17.0662 9.88297C17.0662 5.18061 13.4549 1.36859 9 1.36859C4.54513 1.36859 0.933746 5.18061 0.933746 9.88297C0.933746 14.5853 4.54513 18.3973 9 18.3973Z" fill="#D68F30"/>
<path d="M1.48218 12.0947V12.9645C1.56655 13.1946 1.66077 13.4217 1.76343 13.6414V12.0947H1.48218ZM2.40187 13.732V14.777C2.51437 14.9447 2.63108 15.1095 2.75343 15.2683V13.732H2.40187ZM3.61968 15.0976V16.2242C3.75608 16.3534 3.89671 16.4766 4.04155 16.5953V15.0976H3.61968ZM5.11874 16.1352V17.3464C5.25655 17.4266 5.39718 17.5023 5.54062 17.575V16.1352H5.11874ZM6.8189 16.7957V18.0782C6.95812 18.1198 7.09874 18.1569 7.24077 18.191V16.7957H6.8189ZM8.80874 17.0243V18.3914C8.87202 18.3929 8.9353 18.3959 8.99999 18.3959C9.07733 18.3959 9.15468 18.3914 9.23062 18.3899V17.0243H8.80874ZM10.7986 16.7853V18.1806C10.9406 18.1465 11.0812 18.1079 11.2205 18.0663V16.7853H10.7986ZM12.4945 16.1159V17.5572C12.638 17.4844 12.7786 17.4058 12.9164 17.3241V16.1159H12.4945ZM13.9894 15.0694V16.5686C14.1341 16.4492 14.2748 16.3244 14.4112 16.1945V15.0694H13.9894ZM15.622 13.6993H15.2705V15.2356C15.3928 15.0753 15.5109 14.9105 15.622 14.7413V13.6993ZM16.5361 12.0561H16.2548V13.6058C16.3575 13.3816 16.4517 13.1516 16.5361 12.9185V12.0561Z" fill="#BC6F00"/>
<path d="M9 17.6314C13.4549 17.6314 17.0662 13.8194 17.0662 9.11704C17.0662 4.41468 13.4549 0.602661 9 0.602661C4.54513 0.602661 0.933746 4.41468 0.933746 9.11704C0.933746 13.8194 4.54513 17.6314 9 17.6314Z" fill="#FFF176"/>
<path d="M9 16.8729C13.058 16.8729 16.3477 13.4004 16.3477 9.117C16.3477 4.83356 13.058 1.36115 9 1.36115C4.942 1.36115 1.65234 4.83356 1.65234 9.117C1.65234 13.4004 4.942 16.8729 9 16.8729Z" fill="#F2BC1A"/>
<path d="M1.63828 9.41389C1.58624 8.39264 1.75359 7.35655 2.09109 6.38577C2.44265 5.41795 2.98125 4.52288 3.66046 3.76288C5.02453 2.23991 7.00453 1.3567 8.99999 1.34631C10.9955 1.35819 12.9769 2.23991 14.3381 3.76436C15.0187 4.52288 15.5559 5.41944 15.9075 6.38577C16.2464 7.35803 16.4137 8.39264 16.3603 9.41389H16.3322C16.3294 8.39511 16.1383 7.38668 15.7697 6.44514C15.4004 5.50466 14.8611 4.64909 14.182 3.92616C13.5025 3.20394 12.695 2.62996 11.8055 2.23694C10.9162 1.84504 9.9622 1.64325 8.99859 1.64325C8.03497 1.64325 7.08093 1.84504 6.19171 2.23694C5.3022 2.62996 4.49466 3.20394 3.81515 3.92616C3.1356 4.64869 2.59628 5.50437 2.22749 6.44514C1.85883 7.38668 1.66776 8.39511 1.66499 9.41389H1.63828Z" fill="#E08F00"/>
<path d="M9 0.604126C4.545 0.604126 0.933746 4.416 0.933746 9.1185C0.933746 13.821 4.545 17.6329 9 17.6329C13.455 17.6329 17.0662 13.821 17.0662 9.1185C17.0662 4.416 13.455 0.604126 9 0.604126ZM9 16.8744C4.94156 16.8744 1.65234 13.4024 1.65234 9.1185C1.65234 4.83311 4.94156 1.36116 9 1.36116C13.0584 1.36116 16.3477 4.83311 16.3477 9.11702C16.3477 13.4009 13.0584 16.8744 9 16.8744Z" fill="#FFF176"/>
<path d="M5.34234 3.16913L5.52094 3.75249L6.10312 3.51796V3.75249L5.63203 4.11319L5.81203 4.46053V4.69655L5.34234 4.33585L4.87125 4.69655V4.46053L5.05125 4.11319L4.58156 3.75249V3.51796L5.16234 3.75249L5.34234 3.16913ZM3.09516 6.51788L3.27516 7.10124L3.85594 6.86671V7.10124L3.38625 7.46194L3.56625 7.81077V8.0453L3.09516 7.6846L2.62547 8.0453V7.81077L2.80547 7.46194L2.33437 7.10124V6.86671L2.91656 7.10124L3.09516 6.51788ZM3.02906 10.6459L3.20906 11.2293L3.78984 10.9948V11.2293L3.32016 11.59L3.50016 11.9388V12.1733L3.02906 11.8126L2.55937 12.1733V11.9388L2.73937 11.59L2.26828 11.2293V10.9948L2.85047 11.2293L3.02906 10.6459ZM5.42812 13.9234L5.60812 14.5068L6.18891 14.2723V14.5068L5.71922 14.8675L5.89922 15.2148V15.4508L5.42812 15.0901L4.95844 15.4508V15.2148L5.13844 14.8675L4.66734 14.5068V14.2723L5.24953 14.5068L5.42812 13.9234ZM12.6577 3.16913L12.4791 3.75249L11.8969 3.51796V3.75249L12.368 4.11319L12.188 4.46053V4.69655L12.6577 4.33585L13.1287 4.69655V4.46053L12.9487 4.11319L13.4184 3.75249V3.51796L12.8377 3.75249L12.6577 3.16913ZM14.9048 6.51788L14.7248 7.10124L14.1441 6.86671V7.10124L14.6137 7.46194L14.4337 7.81077V8.0453L14.9048 7.6846L15.3745 8.0453V7.81077L15.1945 7.46194L15.6656 7.10124V6.86671L15.0834 7.10124L14.9048 6.51788ZM14.9709 10.6459L14.7909 11.2293L14.2102 10.9948V11.2293L14.6798 11.59L14.4998 11.9388V12.1733L14.9709 11.8126L15.4406 12.1733V11.9388L15.2606 11.59L15.7317 11.2293V10.9948L15.1495 11.2293L14.9709 10.6459ZM12.5719 13.9234L12.3919 14.5068L11.8111 14.2723V14.5068L12.2808 14.8675L12.1008 15.2148V15.4508L12.5719 15.0901L13.0416 15.4508V15.2148L12.8616 14.8675L13.3327 14.5068V14.2723L12.7505 14.5068L12.5719 13.9234Z" fill="#D38200"/>
<path d="M12.5719 13.6874L12.7505 14.2708H13.3327L12.8616 14.6315L13.0416 15.2148L12.5719 14.8541L12.1008 15.2148L12.2808 14.6315L11.8111 14.2708H12.3919L12.5719 13.6874ZM14.9709 10.4114L15.1495 10.9947H15.7317L15.2606 11.3554L15.4406 11.9388L14.9709 11.5781L14.4998 11.9388L14.6798 11.3554L14.2102 10.9947H14.7909L14.9709 10.4114ZM14.9048 6.28334L15.0834 6.8667H15.6656L15.1945 7.2274L15.3745 7.81076L14.9048 7.45006L14.4338 7.81076L14.6138 7.2274L14.1441 6.8667H14.7248L14.9048 6.28334ZM12.6577 2.93311L12.8377 3.51646H13.4184L12.9488 3.87717L13.1288 4.46053L12.6577 4.09982L12.188 4.46053L12.368 3.87717L11.8969 3.51646H12.4791L12.6577 2.93311Z" fill="#FFF176"/>
<path d="M9.00703 15.2148L9.18703 15.7982L9.76781 15.5637V15.7982L9.29812 16.1589L9.47812 16.5077V16.7423L9.00703 16.3816L8.53734 16.7423V16.5077L8.71734 16.1589L8.24625 15.7982V15.5637L8.82843 15.7982L9.00703 15.2148Z" fill="#D38200"/>
<path d="M9.00703 14.9031L9.18703 15.4865H9.76781L9.29812 15.8472L9.47812 16.4306L9.00703 16.0699L8.53734 16.4306L8.71734 15.8472L8.24625 15.4865H8.82843L9.00703 14.9031Z" fill="#FFF176"/>
<path d="M9.00703 1.91333L9.18703 2.49669L9.76781 2.26216V2.49669L9.29812 2.85739L9.47812 3.20622V3.44075L9.00703 3.08005L8.53734 3.44075V3.20622L8.71734 2.85739L8.24625 2.49669V2.26216L8.82843 2.49669L9.00703 1.91333Z" fill="#D38200"/>
<path d="M9.00703 1.67883L9.18703 2.26219H9.76781L9.29813 2.6229L9.47813 3.20625L9.00703 2.84555L8.53734 3.20625L8.71734 2.6229L8.24625 2.26219H8.82844L9.00703 1.67883ZM5.42812 13.6874L5.24953 14.2708H4.66734L5.13844 14.6315L4.95844 15.2148L5.42812 14.8541L5.89922 15.2148L5.71922 14.6315L6.18891 14.2708H5.60812L5.42812 13.6874ZM3.02906 10.4114L2.85047 10.9948H2.26828L2.73937 11.3555L2.55937 11.9388L3.02906 11.5781L3.50016 11.9388L3.32016 11.3555L3.78984 10.9948H3.20906L3.02906 10.4114ZM3.09516 6.28336L2.91656 6.86672H2.33437L2.80547 7.22743L2.62547 7.81079L3.09516 7.45008L3.56625 7.81079L3.38625 7.22743L3.85594 6.86672H3.27516L3.09516 6.28336ZM5.34234 2.93313L5.16234 3.51649H4.58156L5.05125 3.87719L4.87125 4.46055L5.34234 4.09985L5.81203 4.46055L5.63203 3.87719L6.10312 3.51649H5.52094L5.34234 2.93313Z" fill="#FFF176"/>
<path d="M13.3903 7.15468C13.3903 7.10273 4.61814 7.15468 4.61814 7.15468L4.53939 7.40406V7.83007C4.53939 7.90726 4.59845 7.9696 4.67158 7.9696H13.3285C13.4016 7.9696 13.4606 7.90726 13.4606 7.83007V7.41593L13.3903 7.15468ZM13.403 12.6914H4.6547L4.0697 13.0016L4.07673 13.4009C4.07814 13.444 4.11189 13.4796 4.15408 13.4796H13.8474C13.8881 13.4796 13.9233 13.4455 13.9247 13.4009L13.9317 13.0091L13.403 12.6914Z" fill="#D38200"/>
<path d="M6.06516 11.4772H5.56172C5.47875 11.4772 5.41125 11.2011 5.41125 11.1135L6.21422 11.0868C6.21422 11.1744 6.14672 11.4772 6.06516 11.4772ZM6.23672 8.61085H5.38875C5.32547 8.61085 5.27063 8.56632 5.25235 8.50249L5.18625 7.91913H6.42797L6.37172 8.50249C6.35485 8.56632 6.3 8.61085 6.23672 8.61085ZM5.38875 11.6538H6.23672C6.3 11.6538 6.42516 11.6954 6.44204 11.7592C6.44204 11.7592 6.43782 12.0368 6.43782 12.1466C6.43782 12.2565 6.39563 12.3366 6.30141 12.3366H5.32407C5.22985 12.3366 5.18766 12.2476 5.18766 12.1466C5.18766 12.0457 5.18344 11.7622 5.18344 11.7622C5.20172 11.6983 5.32547 11.6538 5.38875 11.6538ZM12.6042 11.4772H12.1008C12.0178 11.4772 11.9503 11.2011 11.9503 11.1135L12.7533 11.0868C12.7533 11.1744 12.6872 11.4772 12.6042 11.4772ZM12.7758 8.61085H11.9278C11.8645 8.61085 11.8097 8.56632 11.7914 8.50249L11.7253 7.91913H12.967L12.9108 8.50249C12.8939 8.56632 12.8391 8.61085 12.7758 8.61085ZM11.9278 11.6538H12.7758C12.8391 11.6538 12.9642 11.6954 12.9811 11.7592C12.9811 11.7592 12.9769 12.0368 12.9769 12.1466C12.9769 12.2565 12.9347 12.3366 12.8405 12.3366H11.8631C11.7689 12.3366 11.7267 12.2476 11.7267 12.1466C11.7267 12.0457 11.7225 11.7622 11.7225 11.7622C11.7408 11.6983 11.8645 11.6538 11.9278 11.6538ZM10.4245 11.4772H9.9211C9.83813 11.4772 9.77063 11.2011 9.77063 11.1135L10.5736 11.0868C10.5736 11.1744 10.5075 11.4772 10.4245 11.4772ZM10.5961 8.61085H9.74813C9.68485 8.61085 9.63 8.56632 9.61172 8.50249L9.54563 7.91913H10.7873L10.7311 8.50249C10.7142 8.56632 10.6594 8.61085 10.5961 8.61085ZM9.74813 11.6538H10.5961C10.6594 11.6538 10.7845 11.6954 10.8014 11.7592C10.8014 11.7592 10.7972 12.0368 10.7972 12.1466C10.7972 12.2565 10.755 12.3366 10.6608 12.3366H9.68344C9.58922 12.3366 9.54704 12.2476 9.54704 12.1466C9.54704 12.0457 9.54282 11.7622 9.54282 11.7622C9.5611 11.6983 9.68485 11.6538 9.74813 11.6538ZM8.24485 11.4772H7.74141C7.65844 11.4772 7.59094 11.2011 7.59094 11.1135L8.39391 11.0868C8.39391 11.1744 8.32782 11.4772 8.24485 11.4772ZM8.41641 8.61085H7.56844C7.50516 8.61085 7.45032 8.56632 7.43203 8.50249L7.36594 7.91913H8.60766L8.55141 8.50249C8.53454 8.56632 8.47969 8.61085 8.41641 8.61085ZM7.56844 11.6538H8.41641C8.47969 11.6538 8.60485 11.6954 8.62172 11.7592C8.62172 11.7592 8.6175 12.0368 8.6175 12.1466C8.6175 12.2565 8.57532 12.3366 8.4811 12.3366H7.50375C7.40954 12.3366 7.36735 12.2476 7.36735 12.1466C7.36735 12.0457 7.36313 11.7622 7.36313 11.7622C7.38141 11.6983 7.50516 11.6538 7.56844 11.6538Z" fill="#D38200"/>
<path d="M13.4536 6.75685C13.4536 6.7049 13.4283 6.65592 13.3903 6.63217L9.00562 4.00482L4.61531 6.6292C4.57312 6.65592 4.5464 6.7049 4.5464 6.75685L4.53937 7.40552C4.53937 7.48717 4.60265 7.55396 4.67999 7.55396H13.3186C13.3959 7.55396 13.4592 7.48717 13.4592 7.40552L13.4536 6.75685Z" fill="#FFF176"/>
<path d="M12.3525 6.58026L8.99999 4.5719L5.64749 6.58026H12.3525Z" fill="#F2BC1A"/>
<path d="M11.1192 6.33532L9.00002 5.0647L6.8808 6.33532H11.1192ZM13.133 12.1749H4.86705C4.78548 12.1749 4.70814 12.212 4.6533 12.2758L4.08517 12.9452C4.0458 12.9913 4.07673 13.064 4.1358 13.064H13.8642C13.9219 13.064 13.9528 12.9913 13.9149 12.9452L13.3453 12.2758C13.2919 12.212 13.2131 12.1749 13.133 12.1749ZM12.6042 11.2085H12.1008C12.0178 11.2085 11.9503 11.1373 11.9503 11.0497V8.67767C11.9503 8.59009 12.0178 8.51884 12.1008 8.51884H12.6042C12.6872 8.51884 12.7547 8.59009 12.7547 8.67767V11.0512C12.7547 11.1388 12.6872 11.2085 12.6042 11.2085ZM12.7772 8.3422H11.9292C11.866 8.3422 11.8111 8.29767 11.7928 8.23384L11.7281 7.99782C11.7014 7.90282 11.7703 7.80782 11.8645 7.80782H12.8419C12.9361 7.80782 13.0036 7.90282 12.9783 7.99782L12.9136 8.23384C12.8953 8.29767 12.8391 8.3422 12.7772 8.3422ZM11.9278 11.3867H12.7758C12.8391 11.3867 12.8939 11.4312 12.9122 11.495L12.9769 11.731C13.0036 11.826 12.9347 11.921 12.8405 11.921H11.8631C11.7689 11.921 11.7014 11.826 11.7267 11.731L11.7914 11.495C11.8097 11.4297 11.866 11.3867 11.9278 11.3867ZM6.06517 11.2085H5.56173C5.47876 11.2085 5.41126 11.1373 5.41126 11.0497V8.67767C5.41126 8.59009 5.47876 8.51884 5.56173 8.51884H6.06517C6.14814 8.51884 6.21564 8.59009 6.21564 8.67767V11.0512C6.21423 11.1388 6.14673 11.2085 6.06517 11.2085ZM6.23673 8.3422H5.38876C5.32548 8.3422 5.27064 8.29767 5.25236 8.23384L5.18767 7.99782C5.16095 7.90282 5.22986 7.80782 5.32408 7.80782H6.30142C6.39564 7.80782 6.46314 7.90282 6.43783 7.99782L6.37314 8.23384C6.35486 8.29767 6.30001 8.3422 6.23673 8.3422ZM5.38876 11.3867H6.23673C6.30001 11.3867 6.35486 11.4312 6.37314 11.495L6.43783 11.731C6.46455 11.826 6.39564 11.921 6.30142 11.921H5.32408C5.22986 11.921 5.16236 11.826 5.18767 11.731L5.25236 11.495C5.27064 11.4297 5.32548 11.3867 5.38876 11.3867ZM8.24486 11.2085H7.74142C7.65845 11.2085 7.59095 11.1373 7.59095 11.0497V8.67767C7.59095 8.59009 7.65845 8.51884 7.74142 8.51884H8.24486C8.32783 8.51884 8.39533 8.59009 8.39533 8.67767V11.0512C8.39496 11.093 8.37894 11.1331 8.35076 11.1625C8.32258 11.192 8.28452 11.2085 8.24486 11.2085ZM8.41642 8.3422H7.56845C7.50517 8.3422 7.45033 8.29767 7.43205 8.23384L7.36736 7.99782C7.34064 7.90282 7.40955 7.80782 7.50376 7.80782H8.48111C8.57533 7.80782 8.64283 7.90282 8.61752 7.99782L8.55283 8.23384C8.53455 8.29767 8.4797 8.3422 8.41642 8.3422ZM7.56845 11.3867H8.41642C8.4797 11.3867 8.53455 11.4312 8.55283 11.495L8.61752 11.731C8.64423 11.826 8.57533 11.921 8.48111 11.921H7.50376C7.40955 11.921 7.34205 11.826 7.36736 11.731L7.43205 11.495C7.45033 11.4297 7.50517 11.3867 7.56845 11.3867ZM10.4245 11.2085H9.92111C9.83814 11.2085 9.77064 11.1373 9.77064 11.0497V8.67767C9.77064 8.59009 9.83814 8.51884 9.92111 8.51884H10.4245C10.5075 8.51884 10.575 8.59009 10.575 8.67767V11.0512C10.5746 11.093 10.5586 11.1331 10.5304 11.1625C10.5023 11.192 10.4642 11.2085 10.4245 11.2085ZM10.5961 8.3422H9.74814C9.68486 8.3422 9.63001 8.29767 9.61173 8.23384L9.54705 7.99782C9.52033 7.90282 9.58923 7.80782 9.68345 7.80782H10.6608C10.755 7.80782 10.8225 7.90282 10.7972 7.99782L10.7325 8.23384C10.7142 8.29767 10.6594 8.3422 10.5961 8.3422ZM9.74814 11.3867H10.5961C10.6594 11.3867 10.7142 11.4312 10.7325 11.495L10.7972 11.731C10.8239 11.826 10.755 11.921 10.6608 11.921H9.68345C9.58923 11.921 9.52173 11.826 9.54705 11.731L9.61173 11.495C9.63001 11.4297 9.68627 11.3867 9.74814 11.3867Z" fill="#FFF176"/>
</g>
<defs>
<clipPath id="clip0_110_938">
<rect width="18" height="19" fill="white"/>
</clipPath>
</defs>
</svg>
